<?xml version="1.0" encoding="utf-8"?>
<!-- Generator: Adobe Illustrator 19.0.0, SVG Export Plug-In . SVG Version: 6.00 Build 0)  -->
<svg version="1.1" id="Layer_1" xmlns="http://www.w3.org/2000/svg" xmlns:xlink="http://www.w3.org/1999/xlink" x="0px" y="0px"
	 viewBox="0 0 100 100" style="enable-background:new 0 0 100 100;" xml:space="preserve">
<style type="text/css">
	.st0{opacity:0.8;fill:#FFFFFF;}
</style>
<path id="XMLID_3967_" class="st0" d="M84.6,73.6c3,3,3,7.9,0,10.9c-1.5,1.5-3.5,2.3-5.4,2.3s-3.9-0.8-5.4-2.3L50.1,60.9L26.4,84.5
	C24.9,86,23,86.8,21,86.8s-3.9-0.8-5.4-2.3c-3-3-3-7.9,0-10.9L39.2,50L15.5,26.4c-3-3-3-7.9,0-10.9s7.9-3,10.9,0l23.6,23.6
	l23.6-23.6c3-3,7.9-3,10.9,0s3,7.9,0,10.9L61,50L84.6,73.6z"/>
</svg>
