<?xml version="1.0" encoding="utf-8"?>
<!-- Generator: Adobe Illustrator 19.0.0, SVG Export Plug-In . SVG Version: 6.00 Build 0)  -->
<svg version="1.1" id="Layer_1" xmlns="http://www.w3.org/2000/svg" xmlns:xlink="http://www.w3.org/1999/xlink" x="0px" y="0px"
	 viewBox="0 0 300 300" style="enable-background:new 0 0 300 300;" xml:space="preserve">
<style type="text/css">
	.st0{fill:#B3B3B3;}
</style>
<g id="XMLID_1194_">
	<path id="XMLID_1227_" class="st0" d="M296,153.5c-1.3,56.7-34.9,105.4-83.2,128.3l-53.6-128.3H296L296,153.5z"/>
	<g id="XMLID_2_">
		<path id="XMLID_3_" class="st0" d="M144.3,4.8V4.7C66.7,7.9,4.7,71.8,4.7,150.2c0,80.5,65.2,145.7,145.7,145.7
			c17.9,0,35-3.2,50.8-9.1l-56.9-139.5V4.8z"/>
		<path id="XMLID_9_" class="st0" d="M156.5,4.8v136.6h139.3C291.4,67.1,231.2,7.7,156.5,4.7V4.8z M241.9,53.1
			c32.8,29.2,40.4,75.9,40.4,75.9H168.6V18.9C168.6,18.9,209.1,23.9,241.9,53.1z"/>
	</g>
</g>
</svg>
