<?xml version="1.0" encoding="utf-8"?>
<!-- Generator: Adobe Illustrator 19.0.0, SVG Export Plug-In . SVG Version: 6.00 Build 0)  -->
<svg version="1.1" id="Layer_1" xmlns="http://www.w3.org/2000/svg" xmlns:xlink="http://www.w3.org/1999/xlink" x="0px" y="0px"
	 viewBox="0 0 100 100" style="enable-background:new 0 0 100 100;" xml:space="preserve">
<style type="text/css">
	.st0{fill:#1A1A1A;}
</style>
<g id="XMLID_1047_">
	<polygon id="XMLID_1076_" class="st0" points="49.4,75.5 52.4,77.3 86,24.1 83,22.2 	"/>
	<path id="XMLID_1048_" class="st0" d="M83.8,0H16.2C9,0,3.2,5.8,3.2,13v74c0,7.2,5.8,13,13,13h67.7c7.2,0,13-5.8,13-13V13
		C96.8,5.8,91,0,83.8,0z M17.2,20.5h51.6c1.7,0,3,1.3,3,3c0,1.7-1.3,3-3,3H17.2c-1.6,0-3-1.3-3-3C14.2,21.8,15.5,20.5,17.2,20.5z
		 M17.2,38.2H58c1.7,0,3,1.3,3,3c0,1.7-1.3,3-3,3H17.2c-1.6,0-3-1.3-3-3C14.2,39.5,15.5,38.2,17.2,38.2z M17.2,55.7h30
		c1.7,0,3,1.3,3,3c0,1.7-1.3,3-3,3h-30c-1.6,0-3-1.3-3-3C14.2,57,15.5,55.7,17.2,55.7z M36.8,79.4H17.2c-1.6,0-3-1.3-3-3
		c0-1.7,1.3-3,3-3h19.6c1.7,0,3,1.3,3,3C39.8,78,38.5,79.4,36.8,79.4z M91.2,24.6l-15.1,24l-4.7,7.3L54.9,81.6
		c-0.1,0.1-0.1,0.1-0.1,0.1c0,0.1-0.1,0.2-0.1,0.2l-0.1,0.1c-0.1,0-0.1,0.1-0.1,0.1l-10.2,8.6c-0.4,0.4-1,0.6-1.4,0.6
		c-0.4,0-0.8-0.1-1.2-0.4c-0.8-0.5-1.2-1.6-0.8-2.4l3-11.6l2.3-4.7l6.2-9.8l2.9-4.7l6.2-9.8l2.9-4.7l5.8-9.1l2.9-4.7l7.4-11.8
		c0.7-1.1,2.2-1.4,3.2-0.7l6.8,4.3c0.6,0.4,1,0.8,1.1,1.4C91.7,23.4,91.5,24.1,91.2,24.6z"/>
</g>
</svg>
