<?xml version="1.0" encoding="utf-8"?>
<!-- Generator: Adobe Illustrator 19.0.0, SVG Export Plug-In . SVG Version: 6.00 Build 0)  -->
<svg  width="100px" height="100px" version="1.1" id="Layer_1" xmlns="http://www.w3.org/2000/svg" xmlns:xlink="http://www.w3.org/1999/xlink" x="0px" y="0px"
	 viewBox="0 0 100 100" style="enable-background:new 0 0 100 100;" xml:space="preserve">
<style type="text/css">
	.st0{fill:#FFFFFF;}
</style>
<g id="XMLID_4_">
	<path id="XMLID_5_" class="st0" d="M55.7,83H12c-3.2,0-5.8-2.6-5.8-5.8V22.8c0-3.2,2.6-5.8,5.8-5.8h43.7c3.2,0,5.8,2.6,5.8,5.8h6.2
		c0-6.6-5.4-12-12-12H12c-6.6,0-12,5.4-12,12v54.4c0,6.6,5.4,12,12,12h43.7c6.6,0,12-5.4,12-12h-6.2C61.4,80.4,58.8,83,55.7,83z"/>
	<polygon id="XMLID_6_" class="st0" points="100,50 80.7,31.3 80.7,43.8 41.1,43.8 41.1,56.2 80.7,56.2 80.7,68.7 	"/>
</g>
</svg>
