<?xml version="1.0" encoding="utf-8"?>
<!-- Generator: Adobe Illustrator 19.0.0, SVG Export Plug-In . SVG Version: 6.00 Build 0)  -->
<svg version="1.1" id="Layer_1" xmlns="http://www.w3.org/2000/svg" xmlns:xlink="http://www.w3.org/1999/xlink" x="0px" y="0px"
	 viewBox="0 0 100 100" style="enable-background:new 0 0 100 100;" xml:space="preserve">
<style type="text/css">
	.st0{opacity:0.8;}
	.st1{fill:#FFFFFF;}
</style>
<g id="XMLID_2311_" class="st0">
	<g id="XMLID_2318_">
		<path id="XMLID_13_" class="st1" d="M19.8,43.9c-6.5,0-11.7-5.3-11.7-11.7s5.3-11.7,11.7-11.7s11.7,5.3,11.7,11.7
			S26.3,43.9,19.8,43.9z M19.8,24.5c-4.2,0-7.6,3.4-7.6,7.6c0,4.2,3.4,7.6,7.6,7.6s7.6-3.4,7.6-7.6C27.5,28,24,24.5,19.8,24.5z"/>
	</g>
	<g id="XMLID_2317_">
		<path id="XMLID_10_" class="st1" d="M80.2,43.9c-6.5,0-11.7-5.3-11.7-11.7s5.3-11.7,11.7-11.7c6.5,0,11.7,5.3,11.7,11.7
			S86.7,43.9,80.2,43.9z M80.2,24.5c-4.2,0-7.6,3.4-7.6,7.6c0,4.2,3.4,7.6,7.6,7.6s7.6-3.4,7.6-7.6C87.8,28,84.4,24.5,80.2,24.5z"/>
	</g>
	<g id="XMLID_2314_">
		<g id="XMLID_2316_">
			<path id="XMLID_7_" class="st1" d="M50,45.2c-7.5,0-13.7-6.1-13.7-13.7S42.5,17.8,50,17.8S63.7,24,63.7,31.5S57.6,45.2,50,45.2z
				 M50,21.9c-5.3,0-9.6,4.3-9.6,9.6s4.3,9.6,9.6,9.6s9.6-4.3,9.6-9.6S55.3,21.9,50,21.9z"/>
		</g>
		<g id="XMLID_2315_">
			<path id="XMLID_4_" class="st1" d="M76.1,82.2H24v-2.1C24,63.7,35.7,50.4,50,50.4c14.4,0,26.1,13.4,26.1,29.8V82.2z M28.1,78.1
				h43.8C71,64.9,61.6,54.5,50,54.5C38.5,54.5,29,64.9,28.1,78.1z"/>
		</g>
	</g>
	<g id="XMLID_2313_">
		<path id="XMLID_3_" class="st1" d="M20.1,74.8H0v-2.1c0-13.9,10.2-25.2,22.8-25.2c3.7,0,7.3,1,10.6,2.9L31.4,54
			c-2.7-1.6-5.6-2.3-8.6-2.3c-9.7,0-17.7,8.4-18.7,19h15.9V74.8z"/>
	</g>
	<g id="XMLID_2312_">
		<path id="XMLID_2_" class="st1" d="M100,74.8H80v-4.1h15.8c-0.9-10.7-8.9-19-18.7-19c-3,0-5.9,0.8-8.5,2.3l-2-3.6
			c3.3-1.9,6.9-2.9,10.6-2.9c12.6,0,22.8,11.3,22.8,25.2V74.8z"/>
	</g>
</g>
</svg>
