<?xml version="1.0" encoding="utf-8"?>
<!-- Generator: Adobe Illustrator 19.0.0, SVG Export Plug-In . SVG Version: 6.00 Build 0)  -->
<svg version="1.1" id="Layer_1" xmlns="http://www.w3.org/2000/svg" xmlns:xlink="http://www.w3.org/1999/xlink" x="0px" y="0px"
	 viewBox="0 0 100 100" style="enable-background:new 0 0 100 100;" xml:space="preserve">
<style type="text/css">
	.st0{opacity:1;}
	.st1{fill:#666666;}
	.st2{fill:none;stroke:#F2F2F2;stroke-width:10;stroke-linecap:round;stroke-miterlimit:10;}
	.st3{fill:none;stroke:#F69223;stroke-width:5;stroke-linecap:round;stroke-miterlimit:10;}
</style>
<g id="New_Symbol_18">
	<g id="XMLID_2_" class="st0">
		<path id="XMLID_4_" class="st1" d="M49.6,55.2l45-32.6c-1.1-1.1-2.6-1.7-4.2-1.7H8.9c-1.6,0-3.1,0.7-4.2,1.7L49.6,55.2z"/>
		<path id="XMLID_3_" class="st1" d="M49.6,59L3,25.2c-0.2,0.6-0.3,1.2-0.3,1.8v46.1c0,3.4,2.8,6.2,6.2,6.2h81.5
			c3.4,0,6.2-2.8,6.2-6.2V27.1c0-0.6-0.1-1.2-0.3-1.8L49.6,59z"/>
	</g>
	<g id="XMLID_5_">
		<g id="XMLID_9_">
			<line id="XMLID_22_" class="st2" x1="90.1" y1="52.3" x2="69.5" y2="72.9"/>
		</g>
		<g id="XMLID_6_">
			<line id="XMLID_20_" class="st2" x1="90.1" y1="72.9" x2="69.5" y2="52.3"/>
		</g>
		<line id="XMLID_8_" class="st3" x1="90.1" y1="52.3" x2="69.5" y2="72.9"/>
		<line id="XMLID_1_" class="st3" x1="90.1" y1="72.9" x2="69.5" y2="52.3"/>
	</g>
</g>
</svg>
