<svg xmlns="http://www.w3.org/2000/svg" viewBox="0 0 49.54 36.5"><defs><style>.cls-1{fill:none;stroke:#999;stroke-miterlimit:10;stroke-width:2px;}</style></defs><title>viewers</title><g id="Layer_2" data-name="Layer 2"><g id="Layer_1-2" data-name="Layer 1"><g id="_Group_" data-name="&lt;Group&gt;"><circle id="_Path_" data-name="&lt;Path&gt;" class="cls-1" cx="24.98" cy="10.66" r="6.88"/><path id="_Path_2" data-name="&lt;Path&gt;" class="cls-1" d="M30,19.08a7.47,7.47,0,0,1-5,1.76A7.33,7.33,0,0,1,19.89,19C15.4,20.75,12,26.2,11.14,31a2.8,2.8,0,0,0,2.17,3.1A43.46,43.46,0,0,0,25,35.5c5.74,0,9.39-.56,11.93-1.43a2.53,2.53,0,0,0,1.9-2.68C38,26.43,34.59,20.84,30,19.08Z"/><path id="_Path_3" data-name="&lt;Path&gt;" class="cls-1" d="M48.51,22.64c-.67-4.08-3.46-8.64-7.2-10.13A6.16,6.16,0,0,1,37.14,14a6.89,6.89,0,0,1-2.35-.38,8.35,8.35,0,0,1-2.21,3.84c3.55,1.44,6.38,4.85,8.06,8.5A23,23,0,0,0,47,24.8,1.91,1.91,0,0,0,48.51,22.64Z"/><path id="_Path_4" data-name="&lt;Path&gt;" class="cls-1" d="M35.08,9.78a6.23,6.23,0,0,1,0,.89A5,5,0,0,0,42,6a5,5,0,0,0-5-5,5.07,5.07,0,0,0-4.69,3.17A7,7,0,0,1,35.08,9.78Z"/><path id="_Path_5" data-name="&lt;Path&gt;" class="cls-1" d="M2.57,24.8a23,23,0,0,0,6.34,1.1c1.68-3.65,4.51-7.06,8.06-8.5a8.35,8.35,0,0,1-2.21-3.84,6.89,6.89,0,0,1-2.35.38,6.16,6.16,0,0,1-4.18-1.44C4.49,14,1.7,18.56,1,22.64A1.91,1.91,0,0,0,2.57,24.8Z"/><path id="_Path_6" data-name="&lt;Path&gt;" class="cls-1" d="M17.25,4.17A5.07,5.07,0,0,0,12.57,1a5,5,0,1,0,0,10,5,5,0,0,0,1.94-.38,6.23,6.23,0,0,1,0-.89A7,7,0,0,1,17.25,4.17Z"/></g></g></g></svg>