<?xml version="1.0" encoding="utf-8"?>
<!-- Generator: Adobe Illustrator 19.0.0, SVG Export Plug-In . SVG Version: 6.00 Build 0)  -->
<svg version="1.1" id="Layer_1" xmlns="http://www.w3.org/2000/svg" xmlns:xlink="http://www.w3.org/1999/xlink" x="0px" y="0px"
	 viewBox="0 0 100 100" style="enable-background:new 0 0 100 100;" xml:space="preserve">
<style type="text/css">
	.st0{fill:RGBA(225, 225, 225, 0.8);}
</style>
<g id="XMLID_2266_">
	<g id="XMLID_2274_">
		<path id="XMLID_9_" class="st0" d="M40.1,96.7C18,96.7,0,78.7,0,56.6c0-22.1,18-40.1,40.1-40.1c22.1,0,40.1,18,40.1,40.1
			C80.3,78.7,62.3,96.7,40.1,96.7z M40.1,21.7c-19.2,0-34.9,15.6-34.9,34.9c0,19.2,15.6,34.9,34.9,34.9C59.4,91.5,75,75.8,75,56.6
			C75,37.4,59.4,21.7,40.1,21.7z"/>
	</g>
	<g id="XMLID_2273_">
		<rect id="XMLID_8_" x="38.4" y="27.1" class="st0" width="3.5" height="8.1"/>
	</g>
	<g id="XMLID_2272_">
		<rect id="XMLID_7_" x="9.6" y="55.9" class="st0" width="8.1" height="3.5"/>
	</g>
	<g id="XMLID_2271_">
		<rect id="XMLID_6_" x="38.4" y="80" class="st0" width="3.5" height="8.1"/>
	</g>
	<g id="XMLID_2270_">
		<rect id="XMLID_5_" x="62.5" y="55.9" class="st0" width="8.1" height="3.5"/>
	</g>
	<g id="XMLID_2269_">
		<polygon id="XMLID_4_" class="st0" points="40.3,60.2 25.3,47.8 28.6,43.7 39.9,53 57.1,35.4 60.9,39 		"/>
	</g>
	<g id="XMLID_2268_">
		<polygon id="XMLID_3_" class="st0" points="90.9,62.5 81.8,51.4 85.9,48 90.9,54.2 95.9,48 100,51.4 		"/>
	</g>
	<g id="XMLID_2267_">
		<path id="XMLID_2_" class="st0" d="M93.5,56.6H90C90,29.1,67.6,6.8,40.1,6.8V3.3C69.5,3.3,93.5,27.2,93.5,56.6z"/>
	</g>
</g>
</svg>
