<?xml version="1.0" encoding="utf-8"?>
<!-- Generator: Adobe Illustrator 19.0.0, SVG Export Plug-In . SVG Version: 6.00 Build 0)  -->
<svg version="1.1" id="Layer_1" xmlns="http://www.w3.org/2000/svg" xmlns:xlink="http://www.w3.org/1999/xlink" x="0px" y="0px"
	 viewBox="0 0 200 200" style="enable-background:new 0 0 200 200;" xml:space="preserve">
<style type="text/css">
	.st0{fill:#FFFFFF;}
	.st1{fill:#002960;}
</style>
<g id="XMLID_2_">
	<path id="XMLID_1970_" class="st0" d="M156.9,90.2c-1.3,0-2.6,0.1-3.9,0.2c0.2-1.6,0.3-3.2,0.3-4.9c0-25-20.3-45.3-45.3-45.3
		c-21.6,0-39.7,15.1-44.2,35.4c-3.7-1-7.5-1.6-11.5-1.6c-23.8,0-43.1,19.3-43.1,43.1c0,23.6,19,42.8,42.5,43.1v0h105.3
		c19.3,0,35-15.7,35-35S176.3,90.2,156.9,90.2z"/>
	<polygon id="XMLID_2128_" class="st1" points="127.7,110 100.5,80.8 73.3,110 78.2,114.6 97.2,94.1 97.2,138.7 103.9,138.7 
		103.9,94.1 122.9,114.6 	"/>
</g>
</svg>
