<?xml version="1.0" encoding="utf-8"?>
<!-- Generator: Adobe Illustrator 19.0.0, SVG Export Plug-In . SVG Version: 6.00 Build 0)  -->
<svg version="1.1" id="Layer_1" xmlns="http://www.w3.org/2000/svg" xmlns:xlink="http://www.w3.org/1999/xlink" x="0px" y="0px"
	 viewBox="0 0 100 100" style="enable-background:new 0 0 100 100;" xml:space="preserve">
<style type="text/css">
	.st0{fill:#FFFFFF;stroke:#000000;stroke-width:3;stroke-miterlimit:10;}
	.st1{fill:none;stroke:#000000;stroke-width:3;stroke-miterlimit:10;}
</style>
<g id="XMLID_1_">
	<path id="XMLID_16_" d="M50,3c25.9,0,47,21.1,47,47S75.9,97,50,97S3,75.9,3,50S24.1,3,50,3 M50,0C22.4,0,0,22.4,0,50s22.4,50,50,50
		s50-22.4,50-50S77.6,0,50,0L50,0z"/>
</g>
<path id="XMLID_3_" class="st0" d="M73.1,68.2h-32c-4.5,0-8.1-3.6-8.1-8.1v-32"/>
<polyline id="XMLID_4_" class="st1" points="63.5,60.7 73.1,68.2 63.5,75.8 "/>
</svg>
