<?xml version="1.0" encoding="utf-8"?>
<!-- Generator: Adobe Illustrator 19.0.0, SVG Export Plug-In . SVG Version: 6.00 Build 0)  -->
<svg version="1.1" id="Layer_1" xmlns="http://www.w3.org/2000/svg" xmlns:xlink="http://www.w3.org/1999/xlink" x="0px" y="0px"
	 viewBox="-252 404.2 45.3 33.7" style="enable-background:new -252 404.2 45.3 33.7;" xml:space="preserve">
<style type="text/css">
	.st0{opacity:0.5;fill:#818181;enable-background:new    ;}
</style>
<path class="st0" d="M-206.7,404.2H-242c-5.5,0-10,4.5-10,10v13.7c0,5.5,4.5,10,10,10h35.3V404.2z M-221.4,430
	c-0.4,0.4-0.9,0.6-1.4,0.6s-1-0.2-1.4-0.6l-6.1-6.1l-6.1,6.1c-0.4,0.4-0.9,0.6-1.4,0.6s-1-0.2-1.4-0.6c-0.8-0.8-0.8-2,0-2.8l6.1-6.1
	l-6.1-6.1c-0.8-0.8-0.8-2,0-2.8s2-0.8,2.8,0l6.1,6.1l6.1-6.1c0.8-0.8,2-0.8,2.8,0c0.8,0.8,0.8,2,0,2.8l-6.1,6.1l6.1,6.1
	C-220.6,428-220.6,429.2-221.4,430z"/>
</svg>
