<?xml version="1.0" encoding="utf-8"?>
<!-- Generator: Adobe Illustrator 19.0.0, SVG Export Plug-In . SVG Version: 6.00 Build 0)  -->
<svg version="1.1" id="Layer_1" xmlns="http://www.w3.org/2000/svg" xmlns:xlink="http://www.w3.org/1999/xlink" x="0px" y="0px"
	 viewBox="0 0 100 100" style="enable-background:new 0 0 100 100;" xml:space="preserve">
<style type="text/css">
	.st0{opacity:0.8;fill:#4D4D4D;}
</style>
<path id="XMLID_1467_" class="st0" d="M77.5,23.4H22.5c-2.4,0-4.1,2.2-3.8,4.9l7.2,60.8c0.3,2.7,2.6,4.9,5,4.9h38.3
	c2.4,0,4.7-2.2,5-4.9l7.2-60.8C81.6,25.6,79.9,23.4,77.5,23.4z M38.7,80.2c0,4.8-6.6,4.8-6.6,0c0-13.9,0-27.8,0-41.6
	c0-4.8,6.6-4.8,6.6,0C38.7,52.4,38.7,66.3,38.7,80.2z M53.4,80.2c0,4.8-6.6,4.8-6.6,0c0-13.9,0-27.8,0-41.6c0-4.8,6.6-4.8,6.6,0
	C53.4,52.4,53.4,66.3,53.4,80.2z M68.1,80.2c0,4.8-6.6,4.8-6.6,0c0-13.9,0-27.8,0-41.6c0-4.8,6.6-4.8,6.6,0
	C68.1,52.4,68.1,66.3,68.1,80.2z M81.3,12v5.4c0,1.3-1,2.4-2.1,2.4H20.8c-1.2,0-2.1-1.1-2.1-2.4V12c0-1.3,1-2.4,2.1-2.4H40V8.4
	C40,7.1,41,6,42.2,6h17.1c1.2,0,2.1,1.1,2.1,2.4v1.2h17.8C80.4,9.6,81.3,10.7,81.3,12z"/>
</svg>
