<?xml version="1.0" encoding="utf-8"?>
<!-- Generator: Adobe Illustrator 19.0.0, SVG Export Plug-In . SVG Version: 6.00 Build 0)  -->
<svg version="1.1" id="Layer_1" xmlns="http://www.w3.org/2000/svg" xmlns:xlink="http://www.w3.org/1999/xlink" x="0px" y="0px"
	 viewBox="-280 404.2 33.7 33.7" style="enable-background:new -280 404.2 33.7 33.7;" xml:space="preserve">
<style type="text/css">
	.st0{opacity:0.5;fill:#FFFFFF;enable-background:new    ;}
</style>
<path id="XMLID_837_" class="st0" d="M-274.4,431.9l1.1-7.5l6.4,6.4L-274.4,431.9z M-266.1,430l-1.7-1.7l-0.6-0.6l-1.7-1.7l-0.6-0.6
	l-1.7-1.7l1.3-1.3l10.4-10.6l1.7,1.7l-10.5,10.5l0.6,0.6l10.6-10.5l1.7,1.7l-10.5,10.5l0.6,0.6l10.5-10.4l1.7,1.7L-266.1,430z
	 M-253.4,417.3l-6.4-6.4l1.3-1.3c0,0,3.3,1.5,4.1,2.3c0.8,0.8,2.3,4.1,2.3,4.1L-253.4,417.3z"/>
</svg>
