<?xml version="1.0" encoding="utf-8"?>
<!-- Generator: Adobe Illustrator 19.0.0, SVG Export Plug-In . SVG Version: 6.00 Build 0)  -->
<svg version="1.1" id="Layer_1" xmlns="http://www.w3.org/2000/svg" xmlns:xlink="http://www.w3.org/1999/xlink" x="0px" y="0px"
	 viewBox="-252 404.2 90.7 33.7" style="enable-background:new -252 404.2 90.7 33.7;" xml:space="preserve">
<style type="text/css">
	.st0{fill:#FFFFFF;}
</style>
<polygon class="st0" points="-246.4,431.9 -245.3,424.4 -238.9,430.8 "/>
<polygon class="st0" points="-238.1,430 -239.8,428.3 -240.4,427.7 -242.1,426 -242.7,425.4 -244.4,423.7 -243.1,422.4 
	-232.7,411.8 -231,413.5 -241.5,424 -240.9,424.6 -230.3,414.1 -228.6,415.8 -239.1,426.3 -238.5,426.9 -228,416.5 -226.3,418.2 "/>
<path class="st0" d="M-225.4,417.3l-6.4-6.4l1.3-1.3c0,0,3.3,1.5,4.1,2.3c0.8,0.8,2.3,4.1,2.3,4.1L-225.4,417.3z"/>
<g id="XMLID_834_">
	<path id="XMLID_145_" class="st0" d="M-201.2,422.4h-5.3v3.6h6.3v2.2h-9.1v-13.4h9v2.3h-6.3v3.2h5.3v2.1H-201.2z"/>
	<path id="XMLID_147_" class="st0" d="M-199.4,423.2c0-1.6,0.4-2.8,1.1-3.7s1.7-1.4,2.9-1.4c1,0,1.8,0.4,2.4,1.1V414h2.7v14.3h-2.4
		l-0.2-1.1c-0.7,0.8-1.5,1.3-2.6,1.3c-1.2,0-2.1-0.5-2.8-1.4S-199.4,424.9-199.4,423.2z M-196.7,423.4c0,0.9,0.2,1.7,0.5,2.2
		s0.8,0.8,1.4,0.8c0.8,0,1.4-0.3,1.8-1.1v-4c-0.4-0.7-1-1.1-1.8-1.1C-196.1,420.2-196.7,421.3-196.7,423.4z"/>
	<path id="XMLID_150_" class="st0" d="M-188.3,415.7c0-0.4,0.1-0.7,0.4-1c0.3-0.3,0.6-0.4,1.1-0.4s0.8,0.1,1.1,0.4
		c0.3,0.3,0.4,0.6,0.4,1c0,0.4-0.1,0.7-0.4,1c-0.3,0.3-0.6,0.4-1.1,0.4s-0.8-0.1-1.1-0.4C-188.2,416.4-188.3,416.1-188.3,415.7z
		 M-185.4,428.3h-2.7v-10h2.7V428.3z"/>
	<path id="XMLID_153_" class="st0" d="M-180,415.8v2.5h1.7v2h-1.7v5c0,0.4,0.1,0.6,0.2,0.8c0.1,0.2,0.4,0.2,0.8,0.2
		c0.3,0,0.6,0,0.8-0.1v2c-0.5,0.2-1.1,0.2-1.6,0.2c-1.9,0-2.8-0.9-2.9-2.8v-5.4h-1.5v-2h1.5v-2.5L-180,415.8L-180,415.8z"/>
</g>
</svg>
