<?xml version="1.0" encoding="utf-8"?>
<!-- Generator: Adobe Illustrator 19.0.0, SVG Export Plug-In . SVG Version: 6.00 Build 0)  -->
<svg version="1.1" id="Layer_1" xmlns="http://www.w3.org/2000/svg" xmlns:xlink="http://www.w3.org/1999/xlink" x="0px" y="0px"
	 viewBox="0 0 100 100" style="enable-background:new 0 0 100 100;" xml:space="preserve">
<style type="text/css">
	.st0{fill:#14824B;}
	.st1{fill:#20A465;}
</style>
<g id="XMLID_1_">
	<g id="XMLID_1008_">
		<g id="XMLID_1078_">
			<rect id="XMLID_1094_" x="51.8" y="59" class="st0" width="19" height="9.1"/>
			<rect id="XMLID_1095_" x="51.8" y="70.9" class="st0" width="19" height="9.1"/>
			<rect id="XMLID_1103_" x="51.8" y="47.1" class="st0" width="19" height="9.1"/>
			<rect id="XMLID_1104_" x="30" y="47.1" class="st0" width="19" height="9.1"/>
			<rect id="XMLID_1113_" x="30" y="59" class="st0" width="19" height="9.1"/>
			<rect id="XMLID_1114_" x="30" y="70.9" class="st0" width="19" height="9.1"/>
			<path id="XMLID_1110_" class="st0" d="M66.7,27.8c-2.6,0-4.7-2.1-4.7-4.7v-9.8v-6H22.3c-2.6,0-4.7,2.1-4.7,4.7v75.9
				c0,2.6,2.1,4.7,4.7,4.7h55.5c2.6,0,4.7-2.1,4.7-4.7V27.8H66.7z M73.6,82.8H27.2V44.3h46.5V82.8z"/>
		</g>
	</g>
	<path id="XMLID_1066_" class="st1" d="M82.4,27.8H66.7c-2.6,0-4.7-2.1-4.7-4.7V7.4L82.4,27.8z"/>
</g>
</svg>
