<?xml version="1.0" encoding="utf-8"?>
<!-- Generator: Adobe Illustrator 19.0.0, SVG Export Plug-In . SVG Version: 6.00 Build 0)  -->
<svg version="1.1" id="Layer_1" xmlns="http://www.w3.org/2000/svg" xmlns:xlink="http://www.w3.org/1999/xlink" x="0px" y="0px"
	 viewBox="-22 23 55 55" style="enable-background:new -22 23 55 55;" xml:space="preserve">
<style type="text/css">
	.st0{fill:#FFFFFF;}
</style>
<g id="New_Symbol_35">
	<path id="XMLID_14_" class="st0" d="M6.1,46.4c-0.1,0-0.3,0-0.5,0c-2.3,0-4.1,1.9-4.1,4.1c0,2.2,1.8,4.1,4.1,4.1s4.1-1.9,4.1-4.1
		c0-0.7-0.2-1.3-0.5-1.9l6.4-12.3L6.1,46.4z"/>
	<path id="XMLID_13_" class="st0" d="M5.6,28.7c-12,0-21.8,9.8-21.8,21.8c0,1.7,0.2,3.3,0.6,5l0.8-0.2c-0.4-1.6-0.6-3.2-0.6-4.8
		c0-11.6,9.4-21,21-21s21,9.4,21,21c0,1.6-0.2,3.2-0.6,4.8l0.8,0.2c0.4-1.6,0.6-3.3,0.6-5C27.4,38.5,17.6,28.7,5.6,28.7z"/>
	<path id="XMLID_12_" class="st0" d="M5.6,23C-9.6,23-22,35.3-22,50.5c0,4.4,1.1,8.8,3.1,12.7l0.3,0.6l0,0C-13.8,72.3-4.8,78,5.5,78
		s19.3-5.7,24-14.1l0,0l0.3-0.6c2-3.9,3.1-8.3,3.1-12.7C33.1,35.3,20.8,23,5.6,23z M5.6,75.6c-8.9,0-16.7-4.7-21.2-11.7h42.4
		C22.3,71,14.5,75.6,5.6,75.6z M28.2,61.6H-17c-1.7-3.4-2.5-7.1-2.5-11c0-13.8,11.3-25.1,25.1-25.1s25.1,11.3,25.1,25.1
		C30.7,54.5,29.9,58.1,28.2,61.6z"/>
	<g id="XMLID_8_">
		<path id="XMLID_11_" class="st0" d="M7,69.3c0,0.8-0.6,1.4-1.4,1.4s-1.4-0.6-1.4-1.4c0-0.8,0.6-1.4,1.4-1.4S7,68.5,7,69.3z"/>
		<path id="XMLID_10_" class="st0" d="M14.8,69.3c0,0.8-0.6,1.4-1.4,1.4c-0.8,0-1.4-0.6-1.4-1.4c0-0.8,0.6-1.4,1.4-1.4
			S14.8,68.5,14.8,69.3z"/>
		<path id="XMLID_9_" class="st0" d="M-0.7,69.3c0,0.8-0.6,1.4-1.4,1.4s-1.4-0.6-1.4-1.4c0-0.8,0.6-1.4,1.4-1.4S-0.7,68.5-0.7,69.3z
			"/>
	</g>
</g>
</svg>
