<?xml version="1.0" encoding="utf-8"?>
<!-- Generator: Adobe Illustrator 19.0.0, SVG Export Plug-In . SVG Version: 6.00 Build 0)  -->
<svg version="1.1" id="Layer_1" xmlns="http://www.w3.org/2000/svg" xmlns:xlink="http://www.w3.org/1999/xlink" x="0px" y="0px"
	 viewBox="0 0 100 100" style="enable-background:new 0 0 100 100;" xml:space="preserve">
<style type="text/css">
	.st0{fill:#FFFFFF;}
</style>
<path id="XMLID_177_" class="st0" d="M97,48.1L79.2,34.9V17.2c0-1.6-1.3-2.8-2.8-2.8h-8.8c-1.6,0-2.8,1.3-2.8,2.8v6.9l-11.9-8.9
	c-1.6-1.2-3.9-1.2-5.4,0L3,48.1H14v33.4c0,2.3,1.9,4.3,4.3,4.3h64.5c2.3,0,4.3-1.9,4.3-4.3V48.1H97z M59.9,81.2
	c0,1.6-1.3,2.8-2.8,2.8H43.9c-1.6,0-2.8-1.3-2.8-2.8V56.9c0-1.6,1.3-2.8,2.8-2.8H57c1.6,0,2.8,1.3,2.8,2.8V81.2z"/>
</svg>
