<?xml version="1.0" encoding="utf-8"?>
<!-- Generator: Adobe Illustrator 19.0.0, SVG Export Plug-In . SVG Version: 6.00 Build 0)  -->
<svg version="1.1" id="Layer_1" xmlns="http://www.w3.org/2000/svg" xmlns:xlink="http://www.w3.org/1999/xlink" x="0px" y="0px"
	 viewBox="-249 251 100 100" style="enable-background:new -249 251 100 100;" xml:space="preserve">
<style type="text/css">
	.st0{fill:#FFFFFF;}
</style>
<g id="XMLID_133_">
	<path id="XMLID_151_" class="st0" d="M-163,259.4h-72c-1.7,0-3,1.3-3,3v77.3c0,1.7,1.3,3,3,3h72c1.7,0,3-1.3,3-3v-77.3
		C-160,260.7-161.3,259.4-163,259.4z M-164,338.6h-70v-75.2h70V338.6z"/>
	<rect id="XMLID_155_" x="-229.2" y="321.3" class="st0" width="61.8" height="2.2"/>
	<rect id="XMLID_156_" x="-229.2" y="312" class="st0" width="61.8" height="2.2"/>
	<rect id="XMLID_157_" x="-229.2" y="330.7" class="st0" width="61.8" height="2.2"/>
	<path id="XMLID_158_" class="st0" d="M-225.7,299.6c0,0.1,0,0.2,0,0.3c0,1.4,1.1,2.5,2.5,2.5h49c1.3,0,2.4-1.1,2.4-2.5
		s-1.1-2.5-2.5-2.5h-43.4l8.4-8.2l9.9,6.3l12.2-17.4h11.2c1.4,0,2.5-1.1,2.5-2.5s-1.1-2.5-2.5-2.5h-13.9l-10.9,15.6l-9.2-5.9
		l-10.7,10.4v-20c0-1.4-1.1-2.5-2.5-2.5c-1.4,0-2.5,1.1-2.5,2.5V299C-225.7,299.2-225.7,299.4-225.7,299.6z"/>
</g>
</svg>
