<?xml version="1.0" encoding="utf-8"?>
<!-- Generator: Adobe Illustrator 19.0.0, SVG Export Plug-In . SVG Version: 6.00 Build 0)  -->
<svg version="1.1" id="Layer_1" xmlns="http://www.w3.org/2000/svg" xmlns:xlink="http://www.w3.org/1999/xlink" x="0px" y="0px"
	 viewBox="-249 251 100 100" style="enable-background:new -249 251 100 100;" xml:space="preserve">
<style type="text/css">
	.st0{fill:#FFFFFF;}
</style>
<g id="XMLID_1002_">
	<g id="XMLID_1019_">
		<g id="XMLID_1024_">
			<path id="XMLID_1030_" class="st0" d="M-221.1,296.7h-5.2c-0.3,0-0.5-0.2-0.5-0.5v-8.7c0-0.3,0.2-0.5,0.5-0.5h5.2
				c0.3,0,0.5,0.2,0.5,0.5v8.7C-220.6,296.5-220.9,296.7-221.1,296.7z"/>
			<path id="XMLID_1028_" class="st0" d="M-212.4,296.7h-5.2c-0.3,0-0.5-0.2-0.5-0.5v-15.8c0-0.3,0.2-0.5,0.5-0.5h5.2
				c0.3,0,0.5,0.2,0.5,0.5v15.9C-212,296.5-212.2,296.7-212.4,296.7z"/>
			<path id="XMLID_1026_" class="st0" d="M-203.8,296.7h-5.2c-0.3,0-0.5-0.2-0.5-0.5V272c0-0.3,0.2-0.5,0.5-0.5h5.2
				c0.3,0,0.5,0.2,0.5,0.5v24.3C-203.3,296.5-203.5,296.7-203.8,296.7z"/>
		</g>
		<path id="XMLID_1023_" class="st0" d="M-170.5,310.5h-55.3c-0.6,0-1-0.5-1-1v-1.3c0-0.6,0.5-1,1-1h55.2c0.6,0,1,0.5,1,1v1.3
			C-169.5,310-170,310.5-170.5,310.5z"/>
		<path id="XMLID_1022_" class="st0" d="M-170.5,315.9h-55.3c-0.6,0-1-0.5-1-1v-1.3c0-0.6,0.5-1,1-1h55.2c0.6,0,1,0.5,1,1v1.3
			C-169.5,315.5-170,315.9-170.5,315.9z"/>
		<path id="XMLID_1021_" class="st0" d="M-170.5,321.3h-55.3c-0.6,0-1-0.5-1-1V319c0-0.6,0.5-1,1-1h55.2c0.6,0,1,0.5,1,1v1.3
			C-169.5,320.9-170,321.3-170.5,321.3z"/>
		<path id="XMLID_1020_" class="st0" d="M-196.6,326.8h-29.2c-0.6,0-1-0.5-1-1v-1.3c0-0.6,0.5-1,1-1h29.2c0.6,0,1,0.5,1,1v1.3
			C-195.6,326.3-196,326.8-196.6,326.8z"/>
	</g>
	<g id="XMLID_1012_">
		<path id="XMLID_1018_" class="st0" d="M-169.6,283.5c-0.1-2-0.6-3.7-1.7-5.5c-1.7-2.8-4.4-4.8-7.6-5.7c-2.9-0.7-6-0.4-8.6,1
			l6,10.3L-169.6,283.5z"/>
		<path id="XMLID_1017_" class="st0" d="M-189.4,274.5c-1.4,1-2.4,2.2-3.3,3.8c-1.1,1.9-1.6,4-1.6,6.2l0,0c0,4,2.1,7.7,5.3,10
			l5.5-9.8L-189.4,274.5z"/>
		<path id="XMLID_1015_" class="st0" d="M-181.5,285.8l-5.5,9.7c1.7,0.8,3.3,1.2,5.3,1.1c6.3-0.1,11.4-4.9,12.1-11L-181.5,285.8z"/>
		<path id="XMLID_1013_" class="st0" d="M-171.4,277.7L-171.4,277.7L-171.4,277.7z"/>
	</g>
	<g id="XMLID_1004_">
		<path id="XMLID_1006_" class="st0" d="M-163.3,342.6h-71.5c-1.7,0-3-1.3-3-3v-77.2c0-1.7,1.3-3,3-3h71.5c1.7,0,3,1.3,3,3v77.3
			C-160.3,341.3-161.6,342.6-163.3,342.6z M-233.8,338.6h69.5v-75.2h-69.5V338.6z"/>
	</g>
</g>
</svg>
