<?xml version="1.0" encoding="utf-8"?>
<!-- Generator: Adobe Illustrator 19.0.0, SVG Export Plug-In . SVG Version: 6.00 Build 0)  -->
<svg version="1.1" id="Layer_1" xmlns="http://www.w3.org/2000/svg" xmlns:xlink="http://www.w3.org/1999/xlink" x="0px" y="0px"
	 viewBox="0 0 100 100" style="enable-background:new 0 0 100 100;" xml:space="preserve">
<style type="text/css">
	.st0{fill:#1A1A1A;}
</style>
<g id="XMLID_1002_">
	<g id="XMLID_1019_">
		<g id="XMLID_1024_">
			<path id="XMLID_1030_" class="st0" d="M27.9,45.7h-5.2c-0.3,0-0.5-0.2-0.5-0.5v-8.7c0-0.3,0.2-0.5,0.5-0.5h5.2
				c0.3,0,0.5,0.2,0.5,0.5v8.7C28.4,45.5,28.1,45.7,27.9,45.7z"/>
			<path id="XMLID_1028_" class="st0" d="M36.6,45.7h-5.2c-0.3,0-0.5-0.2-0.5-0.5V29.4c0-0.3,0.2-0.5,0.5-0.5h5.2
				c0.3,0,0.5,0.2,0.5,0.5v15.9C37,45.5,36.8,45.7,36.6,45.7z"/>
			<path id="XMLID_1026_" class="st0" d="M45.2,45.7H40c-0.3,0-0.5-0.2-0.5-0.5V21c0-0.3,0.2-0.5,0.5-0.5h5.2c0.3,0,0.5,0.2,0.5,0.5
				v24.3C45.7,45.5,45.5,45.7,45.2,45.7z"/>
		</g>
		<path id="XMLID_1023_" class="st0" d="M78.5,59.5H23.2c-0.6,0-1-0.5-1-1v-1.3c0-0.6,0.5-1,1-1h55.2c0.6,0,1,0.5,1,1v1.3
			C79.5,59,79,59.5,78.5,59.5z"/>
		<path id="XMLID_1022_" class="st0" d="M78.5,64.9H23.2c-0.6,0-1-0.5-1-1v-1.3c0-0.6,0.5-1,1-1h55.2c0.6,0,1,0.5,1,1v1.3
			C79.5,64.5,79,64.9,78.5,64.9z"/>
		<path id="XMLID_1021_" class="st0" d="M78.5,70.3H23.2c-0.6,0-1-0.5-1-1v-1.3c0-0.6,0.5-1,1-1h55.2c0.6,0,1,0.5,1,1v1.3
			C79.5,69.9,79,70.3,78.5,70.3z"/>
		<path id="XMLID_1020_" class="st0" d="M52.4,75.8H23.2c-0.6,0-1-0.5-1-1v-1.3c0-0.6,0.5-1,1-1h29.2c0.6,0,1,0.5,1,1v1.3
			C53.4,75.3,53,75.8,52.4,75.8z"/>
	</g>
	<g id="XMLID_1012_">
		<path id="XMLID_1018_" class="st0" d="M79.4,32.5c-0.1-2-0.6-3.7-1.7-5.5c-1.7-2.8-4.4-4.8-7.6-5.7c-2.9-0.7-6-0.4-8.6,1l6,10.3
			L79.4,32.5z"/>
		<path id="XMLID_1017_" class="st0" d="M59.6,23.5c-1.4,1-2.4,2.2-3.3,3.8c-1.1,1.9-1.6,4-1.6,6.2v0c0,4,2.1,7.7,5.3,10l5.5-9.8
			L59.6,23.5z"/>
		<path id="XMLID_1015_" class="st0" d="M67.5,34.8L62,44.5c1.7,0.8,3.3,1.2,5.3,1.1c6.3-0.1,11.4-4.9,12.1-11L67.5,34.8z"/>
		<polygon id="XMLID_1013_" class="st0" points="77.6,26.7 77.6,26.7 77.6,26.7 		"/>
	</g>
	<g id="XMLID_1004_">
		<path id="XMLID_1006_" class="st0" d="M85.7,91.6H14.2c-1.7,0-3-1.3-3-3V11.4c0-1.7,1.3-3,3-3h71.5c1.7,0,3,1.3,3,3v77.3
			C88.7,90.3,87.4,91.6,85.7,91.6z M15.2,87.6h69.5V12.4H15.2V87.6z"/>
	</g>
</g>
</svg>
