<?xml version="1.0" encoding="utf-8"?>
<!-- Generator: Adobe Illustrator 19.0.0, SVG Export Plug-In . SVG Version: 6.00 Build 0)  -->
<svg version="1.1" id="Layer_1" xmlns="http://www.w3.org/2000/svg" xmlns:xlink="http://www.w3.org/1999/xlink" x="0px" y="0px"
	 viewBox="0 0 100 100" style="enable-background:new 0 0 100 100;" xml:space="preserve">
<style type="text/css">
	.st0{fill:#1A1A1A;}
</style>
<g id="XMLID_133_">
	<path id="XMLID_151_" class="st0" d="M86,8.4H14c-1.7,0-3,1.3-3,3v77.3c0,1.7,1.3,3,3,3h72c1.7,0,3-1.3,3-3V11.4
		C89,9.7,87.7,8.4,86,8.4z M85,87.6H15V12.4h70V87.6z"/>
	<rect id="XMLID_155_" x="19.8" y="70.3" class="st0" width="61.8" height="2.2"/>
	<rect id="XMLID_156_" x="19.8" y="61" class="st0" width="61.8" height="2.2"/>
	<rect id="XMLID_157_" x="19.8" y="79.7" class="st0" width="61.8" height="2.2"/>
	<path id="XMLID_158_" class="st0" d="M23.3,48.6c0,0.1,0,0.2,0,0.3c0,1.4,1.1,2.5,2.5,2.5h49c1.3,0,2.4-1.1,2.4-2.5
		c0-1.4-1.1-2.5-2.5-2.5H31.3l8.4-8.2l9.9,6.3l12.2-17.4H73c1.4,0,2.5-1.1,2.5-2.5c0-1.4-1.1-2.5-2.5-2.5H59.1L48.2,37.7L39,31.8
		L28.3,42.2v-20c0-1.4-1.1-2.5-2.5-2.5s-2.5,1.1-2.5,2.5V48C23.3,48.2,23.3,48.4,23.3,48.6z"/>
</g>
</svg>
