<?xml version="1.0" encoding="utf-8"?>
<!-- Generator: Adobe Illustrator 19.0.0, SVG Export Plug-In . SVG Version: 6.00 Build 0)  -->
<svg version="1.1" id="Layer_1" xmlns="http://www.w3.org/2000/svg" xmlns:xlink="http://www.w3.org/1999/xlink" x="0px" y="0px"
	 viewBox="-249 251 100 100" style="enable-background:new -249 251 100 100;" xml:space="preserve">
<style type="text/css">
	.st0{fill:#1A1A1A;}
</style>
<g id="XMLID_1566_">
	<path id="XMLID_1584_" class="st0" d="M-186.9,295.9l-2.4,3.9l-5.2,8.2l-2.4,3.9l-5.2,8.2l-1.9,3.9l-2.5,9.7c-0.3,0.7,0,1.6,0.7,2
		c0.3,0.2,0.7,0.3,1,0.3c0.4,0,0.9-0.2,1.2-0.5l8.5-7.2c0,0,0-0.1,0.1-0.1l0.1-0.1c0,0,0.1-0.1,0.1-0.2c0,0,0,0,0.1-0.1l13.7-21.4
		l3.9-6.1l12.6-20c0.3-0.4,0.4-1,0.3-1.5c-0.1-0.5-0.4-0.9-0.9-1.2l-5.7-3.6c-0.9-0.6-2.1-0.3-2.7,0.6l-6.2,9.8l-2.4,3.9
		L-186.9,295.9z M-171.3,278.3l2.5,1.6l-28,44.3l-2.5-1.5L-171.3,278.3z"/>
	<path id="XMLID_1579_" class="st0" d="M-162.8,259.8h-72c-1.7,0-3,1.3-3,3v77.3c0,1.7,1.3,3,3,3h72c1.7,0,3-1.3,3-3v-77.3
		C-159.8,261.1-161.1,259.8-162.8,259.8z M-163.8,339h-70v-75.2h70V339z"/>
	<path id="XMLID_1578_" class="st0" d="M-226.1,281.9h43c1.4,0,2.5-1.1,2.5-2.5s-1.1-2.5-2.5-2.5h-43c-1.4,0-2.5,1.1-2.5,2.5
		S-227.4,281.9-226.1,281.9z"/>
	<path id="XMLID_1577_" class="st0" d="M-226.1,296.6h34c1.4,0,2.5-1.1,2.5-2.5c0-1.4-1.1-2.5-2.5-2.5h-34c-1.4,0-2.5,1.1-2.5,2.5
		C-228.6,295.5-227.4,296.6-226.1,296.6z"/>
	<path id="XMLID_1576_" class="st0" d="M-226.1,311.2h25c1.4,0,2.5-1.1,2.5-2.5s-1.1-2.5-2.5-2.5h-25c-1.4,0-2.5,1.1-2.5,2.5
		S-227.4,311.2-226.1,311.2z"/>
	<path id="XMLID_1573_" class="st0" d="M-226.1,325.9h16.3c1.4,0,2.5-1.1,2.5-2.5s-1.1-2.5-2.5-2.5h-16.3c-1.4,0-2.5,1.1-2.5,2.5
		S-227.4,325.9-226.1,325.9z"/>
</g>
</svg>
