<?xml version="1.0" encoding="utf-8"?>
<!-- Generator: Adobe Illustrator 19.0.0, SVG Export Plug-In . SVG Version: 6.00 Build 0)  -->
<svg version="1.1" id="Layer_1" xmlns="http://www.w3.org/2000/svg" xmlns:xlink="http://www.w3.org/1999/xlink" x="0px" y="0px"
	 viewBox="0 0 100 100" style="enable-background:new 0 0 100 100;" xml:space="preserve">
<style type="text/css">
	.st0{fill:#FBB03B;stroke:#FFFFFF;stroke-miterlimit:10;}
	.st1{fill:#FFFFFF;}
</style>
<symbol  id="New_Symbol_59" viewBox="-15.1 -15.1 30.1 30.1">
	<path id="XMLID_3492_" class="st0" d="M14.6,0C14.6-8,8-14.6,0-14.6S-14.6-8-14.6,0S-8,14.6,0,14.6S14.6,8,14.6,0z"/>
	<path id="XMLID_3489_" class="st1" d="M2.4,6.5L1.5-1.6c-0.2-1.8-2.8-1.8-3,0l-0.9,8.1c-0.1,1,0.5,2,1.3,2h2.2
		C1.9,8.4,2.5,7.5,2.4,6.5z"/>
	<path id="XMLID_3487_" class="st1" d="M1.9-6.1c0-1-0.8-1.9-1.9-1.9s-1.9,0.8-1.9,1.9S-1-4.2,0-4.2S1.9-5.1,1.9-6.1z"/>
</symbol>
<use xlink:href="#New_Symbol_59"  width="30.1" height="30.1" id="XMLID_2647_" x="-15.1" y="-15.1" transform="matrix(3.155 0 0 -3.155 50.273 50.3739)" style="overflow:visible;"/>
</svg>
