<?xml version="1.0" encoding="utf-8"?>
<!-- Generator: Adobe Illustrator 19.0.0, SVG Export Plug-In . SVG Version: 6.00 Build 0)  -->
<svg version="1.1" id="Layer_1" xmlns="http://www.w3.org/2000/svg" xmlns:xlink="http://www.w3.org/1999/xlink" x="0px" y="0px"
	 viewBox="0 0 25 25.1" style="enable-background:new 0 0 25 25.1;" xml:space="preserve">
<style type="text/css">
	.st0{fill:#F79421;}
</style>
<g id="New_Symbol_21">
	<path id="XMLID_59_" class="st0" d="M12.5,0.1C5.6,0.1,0,5.6,0,12.5C0,19.4,5.6,25,12.5,25S25,19.4,25,12.5
		C25,5.6,19.4,0.1,12.5,0.1z M13.7,6.9l-0.3,7.8h-1.8l-0.3-7.8H13.7z M13.4,17.9c-0.2,0.2-0.5,0.3-0.9,0.3c-0.4,0-0.7-0.1-0.9-0.3
		c-0.2-0.2-0.3-0.5-0.3-0.8c0-0.3,0.1-0.6,0.3-0.8c0.2-0.2,0.5-0.3,0.9-0.3c0.4,0,0.7,0.1,0.9,0.3c0.2,0.2,0.3,0.5,0.3,0.8
		C13.7,17.4,13.6,17.6,13.4,17.9z"/>
</g>
</svg>
