<?xml version="1.0" encoding="utf-8"?>
<!-- Generator: Adobe Illustrator 19.0.0, SVG Export Plug-In . SVG Version: 6.00 Build 0)  -->
<svg version="1.1" id="Layer_1" xmlns="http://www.w3.org/2000/svg" xmlns:xlink="http://www.w3.org/1999/xlink" x="0px" y="0px"
	 viewBox="0 0 100 100" style="enable-background:new 0 0 100 100;" xml:space="preserve">
<style type="text/css">
	.st0{fill:#FFFFFF;}
</style>
<g id="New_Symbol_57">
	<g id="New_Symbol_2">
		<path id="XMLID_3_" class="st0" d="M50,7.5C26.5,7.5,7.5,26.5,7.5,50c0,23.5,19,42.5,42.5,42.5s42.5-19,42.5-42.5
			C92.5,26.5,73.5,7.5,50,7.5z M51.8,72.2c-0.6,0.6-1.4,0.9-2.5,0.9s-2-0.3-2.5-0.9c-0.6-0.6-0.9-1.4-0.9-2.3s0.3-1.7,0.9-2.4
			c0.6-0.6,1.4-1,2.5-1s2,0.3,2.5,1c0.6,0.6,0.9,1.4,0.9,2.4S52.4,71.5,51.8,72.2z M57.6,49.4l-3.4,3.3c-1.5,1.7-2.3,4.1-2.3,7.2
			h-5.7c0-2.5,0.3-4.4,0.8-5.8c0.5-1.4,1.6-3,3.2-4.7l4.1-4.2c1.7-2,2.6-4.1,2.6-6.3c0-2.2-0.6-3.9-1.7-5.1s-2.8-1.8-5-1.8
			c-2.1,0-3.8,0.6-5.1,1.7c-1.3,1.1-1.9,2.6-1.9,4.5h-5.7c0-3.4,1.2-6.1,3.6-8.1c2.3-2.1,5.4-3.1,9.2-3.1c3.9,0,7,1,9.1,3.1
			s3.3,5,3.3,8.6C62.6,42.3,60.9,45.9,57.6,49.4z"/>
	</g>
</g>
</svg>
