<?xml version="1.0" encoding="utf-8"?>
<!-- Generator: Adobe Illustrator 19.0.0, SVG Export Plug-In . SVG Version: 6.00 Build 0)  -->
<svg version="1.1" id="Layer_1" xmlns="http://www.w3.org/2000/svg" xmlns:xlink="http://www.w3.org/1999/xlink" x="0px" y="0px"
	 viewBox="0 0 766.5 567" style="enable-background:new 0 0 766.5 567;" xml:space="preserve">
<style type="text/css">
	.st0{fill:#808080;}
	.st1{fill:#CCCCCC;}
	.st2{fill:#F27F00;}
	.st3{fill:#4D4D4D;}
	.st4{opacity:0.5;fill:#FFFFFF;}
</style>
<g id="XMLID_1_">
	<g id="XMLID_287_">
		<g id="XMLID_788_">
			<polygon id="XMLID_798_" class="st0" points="667.6,528.7 38,528.7 38,103.4 42,103.4 42,524.7 667.6,524.7 			"/>
		</g>
		<g id="XMLID_783_">
			<g id="XMLID_785_">
				<polygon id="XMLID_1092_" class="st0" points="23.7,116.6 26.6,119.3 40,104.9 53.4,119.3 56.4,116.6 40,99 				"/>
			</g>
		</g>
		<g id="XMLID_781_">
			<g id="XMLID_782_">
				<polygon id="XMLID_1082_" class="st0" points="654.3,543.1 651.6,540.2 666,526.8 651.6,513.3 654.3,510.4 671.9,526.8 				"/>
			</g>
		</g>
	</g>
	<g id="XMLID_289_">
		<rect id="XMLID_1064_" x="69.8" y="434.3" class="st1" width="32.2" height="80.5"/>
	</g>
	<g id="XMLID_301_">
		<rect id="XMLID_1060_" x="110.8" y="424.4" class="st0" width="32.2" height="90.5"/>
	</g>
	<g id="XMLID_303_">
		<rect id="XMLID_1055_" x="163.8" y="461" class="st1" width="32.2" height="53.9"/>
	</g>
	<g id="XMLID_302_">
		<rect id="XMLID_1052_" x="204.8" y="395.4" class="st0" width="32.2" height="119.5"/>
	</g>
	<g id="XMLID_739_">
		<rect id="XMLID_1037_" x="259.4" y="369.4" class="st1" width="32.2" height="145.5"/>
	</g>
	<g id="XMLID_737_">
		<rect id="XMLID_1016_" x="300.4" y="322.3" class="st0" width="32.2" height="192.5"/>
	</g>
	<g id="XMLID_746_">
		<rect id="XMLID_1001_" x="356" y="339.2" class="st1" width="32.2" height="175.6"/>
	</g>
	<g id="XMLID_743_">
		<rect id="XMLID_998_" x="397" y="369.4" class="st0" width="32.2" height="145.5"/>
	</g>
	<g id="XMLID_748_">
		<rect id="XMLID_982_" x="458" y="272.1" class="st1" width="32.2" height="242.8"/>
	</g>
	<g id="XMLID_747_">
		<rect id="XMLID_949_" x="499" y="228.3" class="st0" width="32.2" height="286.5"/>
	</g>
	<g id="XMLID_774_">
		<rect id="XMLID_944_" x="564" y="206.4" class="st1" width="32.2" height="308.4"/>
	</g>
	<g id="XMLID_770_">
		<rect id="XMLID_940_" x="605" y="168.9" class="st0" width="32.2" height="345.9"/>
	</g>
	<g id="XMLID_155_">
		<g id="XMLID_778_">
			<polygon id="XMLID_796_" class="st2" points="71.5,399 68.2,391.7 126.5,365.2 194.5,379 273.6,286.8 410.5,286.8 448.5,202.7 
				529.5,193.6 582,148.6 587.2,154.7 532.8,201.3 453.9,210.1 415.7,294.8 277.3,294.8 197.5,387.7 127.4,373.5 			"/>
		</g>
		<g id="XMLID_298_">
			<g id="XMLID_777_">
				<polygon id="XMLID_874_" class="st2" points="587.1,174.9 629.2,113.4 562,145.6 				"/>
			</g>
		</g>
	</g>
	<g id="XMLID_60_">
		<path id="XMLID_765_" class="st3" d="M526.3,340.3c-87.2,0-158.2-71-158.2-158.2S439,23.9,526.3,23.9s158.2,71,158.2,158.2
			S613.5,340.3,526.3,340.3z M526.3,31.9c-82.8,0-150.2,67.4-150.2,150.2s67.4,150.2,150.2,150.2s150.2-67.4,150.2-150.2
			S609.1,31.9,526.3,31.9z"/>
	</g>
	<path id="XMLID_10_" class="st3" d="M742.8,504.3l-96.2-161l-14.2,8.5l-21.6-36.1c44.2-28.1,73.6-77.5,73.6-133.7
		c0-87.2-71-158.2-158.2-158.2s-158.2,71-158.2,158.2s71,158.2,158.2,158.2c28.2,0,54.7-7.4,77.7-20.4l21.5,36l-14.2,8.5l96.2,161
		l14.2-8.5l0,0l6.9-4.1l0,0L742.8,504.3z M376.1,182.1c0-82.8,67.4-150.2,150.2-150.2s150.2,67.4,150.2,150.2
		s-67.4,150.2-150.2,150.2S376.1,264.9,376.1,182.1z"/>
</g>
<path id="XMLID_71_" class="st4" d="M376.1,182.1c0-82.8,67.4-150.2,150.2-150.2s150.2,67.4,150.2,150.2s-67.4,150.2-150.2,150.2
	S376.1,264.9,376.1,182.1z"/>
</svg>
