<?xml version="1.0" encoding="utf-8"?>
<!-- Generator: Adobe Illustrator 19.0.0, SVG Export Plug-In . SVG Version: 6.00 Build 0)  -->
<svg version="1.1" id="Layer_1" xmlns="http://www.w3.org/2000/svg" xmlns:xlink="http://www.w3.org/1999/xlink" x="0px" y="0px"
	 viewBox="0 0 50 31.4" style="enable-background:new 0 0 50 31.4;" xml:space="preserve">
<style type="text/css">
	.st0{fill:#676767;}
</style>
<symbol  id="New_Symbol_18" viewBox="-23.5 -14.1 50 31.1">
	<g id="XMLID_30_">
		<path id="XMLID_34_" class="st0" d="M1.5-1.3l24,17.4c-0.6,0.6-1.4,0.9-2.3,0.9h-43.4c-0.9,0-1.7-0.3-2.3-0.9L1.5-1.3z"/>
		<path id="XMLID_31_" class="st0" d="M1.5-3.4l-24.8,18c-0.1-0.3-0.2-0.6-0.2-1v-24.5c0-1.8,1.5-3.3,3.3-3.3h43.4
			c1.8,0,3.3,1.5,3.3,3.3v24.5c0,0.3-0.1,0.7-0.2,1L1.5-3.4z"/>
	</g>
</symbol>
<use xlink:href="#New_Symbol_18"  width="50" height="31.1" id="XMLID_27_" x="-23.5" y="-14.1" transform="matrix(1 0 0 -1 23.5224 17.1017)" style="overflow:visible;"/>
</svg>
