<?xml version="1.0" encoding="utf-8"?>
<!-- Generator: Adobe Illustrator 19.0.0, SVG Export Plug-In . SVG Version: 6.00 Build 0)  -->
<svg version="1.1" id="Layer_1" xmlns="http://www.w3.org/2000/svg" xmlns:xlink="http://www.w3.org/1999/xlink" x="0px" y="0px"
	 viewBox="-22 23 55 55" style="enable-background:new -22 23 55 55;" xml:space="preserve">
<style type="text/css">
	.st0{fill:#FFFFFF;}
</style>
<g id="New_Symbol_35">
	<g id="New_Symbol_36">
		<g id="New_Symbol_37">
			<g id="New_Symbol_38">
				<g id="New_Symbol_32">
					<path id="XMLID_17_" class="st0" d="M19.5,47.9h8.8l-10.9-6v-6.9h-6.6v3.2l-5.1-2.9L-8.2,43v20.4h27.7V51.9h1.6v13.4H-9.8V41.2
						h0.3c1,0,1.8-0.8,1.8-1.8v-2.6h-0.7v-1.6h-1.3v1.6h-1.5v-1.6h-1.3v1.6h-0.6v2.6c0,1,0.8,1.8,1.8,1.8h0.3v25.3h33.3V50.6h-2.8
						V47.9z M12,36.2h4.2v5L12,38.8V36.2z M9.3,61.6H2V48.5h7.3V61.6z M17.7,46.1v15.5h-7.2V47.3H0.8v14.4h-7.2V44.1l12-6.7
						l15.6,8.7H17.7z"/>
				</g>
				<path id="XMLID_15_" class="st0" d="M5.5,25.5c13.8,0,25,11.2,25,25c0,4-1,8-2.8,11.6l-0.2,0.3l-0.1,0.2
					c-4.4,7.9-12.8,12.8-21.8,12.8c-9.1,0-17.4-4.9-21.8-12.8l-0.1-0.2l-0.2-0.4c-1.9-3.6-2.8-7.6-2.8-11.6
					C-19.5,36.7-8.3,25.5,5.5,25.5 M5.5,23C-9.7,23-22,35.3-22,50.5c0,4.4,1.1,8.8,3.1,12.7l0.3,0.6h0C-13.8,72.3-4.8,78,5.5,78
					c10.3,0,19.3-5.7,24-14.1h0l0.3-0.6c2-3.9,3.1-8.3,3.1-12.7C33,35.3,20.7,23,5.5,23L5.5,23z"/>
			</g>
		</g>
	</g>
</g>
</svg>
