<?xml version="1.0" encoding="utf-8"?>
<!-- Generator: Adobe Illustrator 19.0.0, SVG Export Plug-In . SVG Version: 6.00 Build 0)  -->
<svg version="1.1" id="Layer_1" xmlns="http://www.w3.org/2000/svg" xmlns:xlink="http://www.w3.org/1999/xlink" x="0px" y="0px"
	 viewBox="-22 23 55 55" style="enable-background:new -22 23 55 55;" xml:space="preserve">
<style type="text/css">
	.st0{fill:#FFFFFF;}
</style>
<g id="New_Symbol_35">
	<g id="New_Symbol_36">
		<path class="st0" d="M5.5,23C-9.7,23-22,35.3-22,50.5c0,4.4,1.1,8.8,3.1,12.7l0.3,0.6h0c1,1.8,2.3,3.5,3.6,5.1c0,0,0,0,0,0
			c0,0,0,0,0,0c0.5,0.6,1.1,1.2,1.7,1.7h0c0,0,0,0,0,0c0.3,0.3,0.7,0.6,1.1,0.9c0,0,0.1,0.1,0.1,0.1c0.4,0.3,0.8,0.6,1.1,0.9
			c0,0,0,0,0,0c0,0,0,0,0,0C-6.3,76-0.6,78,5.5,78c6.1,0,11.8-2,16.4-5.4c0,0,0,0,0,0c0,0,0,0,0,0c0.4-0.3,0.8-0.6,1.2-0.9
			c0,0,0.1,0,0.1-0.1c2.6-2.2,4.8-4.8,6.4-7.7h0l0.3-0.6c2-3.9,3.1-8.3,3.1-12.7C33,35.3,20.7,23,5.5,23z M21,70.1
			c-1,0-2,0.3-2.9,0.7c-1.2,0.5-2.7,0.6-4.2,0c-1.9-0.9-4.3-0.9-6.3,0c-1.5,0.6-3,0.5-4.2,0c-1-0.5-2.1-0.7-3.3-0.7
			c-1.1,0-2.2,0.2-3.1,0.7c-1.2,0.5-2.7,0.6-4.2,0c-0.9-0.4-1.8-0.6-2.8-0.7c-0.7-0.6-1.4-1.2-2.1-1.9c0.6-0.2,1.1-0.3,1.8-0.3
			c0.8,0,1.5,0.2,2.1,0.5l0.1,0c2.1,0.8,4.3,0.8,6.2,0c0.6-0.3,1.4-0.5,2.1-0.5c0.8,0,1.6,0.2,2.2,0.5c1.8,0.8,4,0.8,6.1,0l0.1,0
			c1.3-0.6,3-0.6,4.3,0l0.1,0c2.1,0.8,4.3,0.8,6.2,0c0.7-0.3,1.4-0.5,2.1-0.5c0.7,0,1.3,0.1,1.8,0.3C22.5,68.9,21.8,69.5,21,70.1z
			 M-4.1,73.6c0.7-0.1,1.5-0.3,2.2-0.6c0.6-0.3,1.4-0.5,2.1-0.5c0.8,0,1.6,0.2,2.2,0.5c1.8,0.8,4,0.8,6.1,0l0.1,0
			c1.3-0.6,3-0.6,4.3,0l0.1,0c0.7,0.3,1.4,0.5,2.2,0.5c-3,1.3-6.3,1.9-9.6,1.9C2.1,75.5-1.1,74.8-4.1,73.6z M27.7,62.1l-0.2,0.3
			l-0.1,0.2c-0.7,1.3-1.5,2.5-2.4,3.6c-0.2,0-0.3-0.1-0.5-0.1c-0.9-0.4-2-0.7-3.2-0.7c-0.3,0-0.5,0-0.7,0v-0.6v-5l3.8,2.4l0.2,0.1
			h0.1l0.2,0l0.1-0.1c0.1-0.2,0.1-0.4,0-0.5L22,59.1c0,0-0.1-0.1-0.4-0.2c-0.2-0.1-0.8-0.2-1.1-0.2v-0.3h-0.1l0-5.3
			c0-0.2-0.1-0.4-0.4-0.4c-0.2,0-0.3,0.2-0.4,0.3l-0.7,3.7c0,0-0.1,0.2,0,0.4c0.1,0.3,0.5,1.1,0.5,1.2h0l0,0l0,0h-0.1v0.1l-4.5,3.1
			c-0.2,0.1-0.3,0.3-0.2,0.5l0.2,0.2H15l3.7-1.6c0,0,0.2-0.1,0.4-0.3c0.1-0.1,0.2-0.2,0.3-0.4V64v1.7c-0.4,0.1-0.8,0.2-1.1,0.4
			c-1.2,0.5-2.7,0.6-4.2,0c-1.9-0.9-4.3-0.9-6.3,0c0,0,0,0,0,0v-4.2V50.1l5.2,7.5c0,0,0.2,0.2,0.5,0.2c0.1,0,0.1,0,0.2-0.1
			c0.3-0.2,0.2-0.5,0.1-0.6L7.7,43.9C8,43.6,8.1,43.2,8,42.7c0-0.3-0.1-0.5-0.3-0.7c0.7-0.5,2.1-1.4,2.6-1.9
			c0.4-0.4,0.5-0.8,0.5-0.8l3.8-9.9c0-0.2,0-0.5-0.2-0.7l-0.2,0c-0.3,0-0.4,0.3-0.4,0.3L6.2,41.2c-0.6,0-1.1,0.2-1.5,0.7
			c-0.1,0.2-0.2,0.3-0.2,0.5c-0.8-0.4-2.3-1-2.9-1.2c-0.5-0.1-0.9,0-0.9,0l-10.8,2c-0.2,0.1-0.5,0.2-0.4,0.5
			c0.1,0.3,0.3,0.4,0.5,0.4c0,0,0,0,0,0l14.8,0c0.1,0.1,0.1,0.2,0.3,0.3H5v17.9v4.2c-0.6,0-1.1-0.2-1.6-0.4c-1-0.5-2.1-0.7-3.3-0.7
			c-1.1,0-2.2,0.2-3.1,0.7c-1.2,0.5-2.7,0.6-4.2,0c0,0,0,0,0,0v-6.9v-4.6c0.1-0.1,0.1-0.2,0.2-0.3l6.9-2.5c0.2-0.1,0.4-0.2,0.3-0.5
			c0-0.2-0.2-0.3-0.5-0.3l-5.4,0.9c0,0-0.3,0-0.5,0.2c-0.3,0.2-0.8,0.7-1.1,1c-0.1-0.1-0.3-0.2-0.5-0.2c-0.1,0-0.1,0-0.2,0l-5-5.3
			c0,0-0.2-0.2-0.4-0.2l-0.2,0l-0.1,0c-0.2,0.1-0.2,0.4-0.1,0.6l3,4.6c0,0,0.1,0.2,0.4,0.4c0.2,0.2,0.9,0.4,1.3,0.6c0,0,0,0.1,0,0.1
			C-9.3,54-9.2,54.3-9,54.5l-2,7.5c-0.1,0.2,0,0.5,0.2,0.6l0.1,0c0.2,0,0.4-0.2,0.4-0.3l1.6-3.4v6.6c-1.6-0.4-3.4-0.2-4.9,0.5
			c-0.1,0.1-0.3,0.1-0.4,0.1c-0.9-1.1-1.7-2.3-2.4-3.6l-0.1-0.2l-0.2-0.4c-1.9-3.6-2.8-7.6-2.8-11.6c0-13.8,11.2-25,25-25
			s25,11.2,25,25C30.5,54.5,29.5,58.5,27.7,62.1z"/>
	</g>
</g>
</svg>
