<?xml version="1.0" encoding="utf-8"?>
<!-- Generator: Adobe Illustrator 19.0.0, SVG Export Plug-In . SVG Version: 6.00 Build 0)  -->
<svg version="1.1" id="Layer_1" xmlns="http://www.w3.org/2000/svg" xmlns:xlink="http://www.w3.org/1999/xlink" x="0px" y="0px"
	 viewBox="-22 23 55 55" style="enable-background:new -22 23 55 55;" xml:space="preserve">
<style type="text/css">
	.st0{fill:#FFFFFF;}
</style>
<g id="New_Symbol_35">
	<g id="New_Symbol_36">
		<g id="New_Symbol_37">
			<g id="New_Symbol_38">
				<g id="New_Symbol_32">
					<g id="New_Symbol_39">
						<g id="New_Symbol_33">
							<path id="XMLID_18_" class="st0" d="M22,47v-3.1h-3.8V32.5h-3.1v11.4H3l-6.9-11.4h-3.3v11.4H-11V47h3.8v7.3H-11v3.1h3.8v11.1
								h3.1V57.4H7.6l6.7,11.1h3.9V57.4H22v-3.1h-3.8V47H22z M-4.2,38l3.6,5.9h-3.6V38z M-4.2,54.3V47h5.4l4.5,7.3H-4.2z M15.1,63.9
								l-4-6.5h4V63.9z M15.1,54.3H9.3L4.8,47h10.3V54.3z"/>
						</g>
						<path id="XMLID_16_" class="st0" d="M5.5,25.5c13.8,0,25,11.2,25,25c0,4-1,8-2.8,11.6l-0.2,0.3l-0.1,0.3
							c-4.4,7.9-12.8,12.8-21.8,12.8c-9.1,0-17.4-4.9-21.8-12.8l-0.1-0.2l-0.2-0.4c-1.9-3.6-2.8-7.6-2.8-11.6
							C-19.5,36.7-8.3,25.5,5.5,25.5 M5.5,23C-9.7,23-22,35.3-22,50.5c0,4.4,1.1,8.8,3.1,12.7l0.3,0.6h0C-13.8,72.3-4.8,78,5.5,78
							c10.3,0,19.3-5.7,24-14.1h0l0.3-0.6c2-3.9,3.1-8.3,3.1-12.7C33,35.3,20.7,23,5.5,23L5.5,23z"/>
					</g>
				</g>
			</g>
		</g>
	</g>
</g>
</svg>
