<?xml version="1.0" encoding="utf-8"?>
<!-- Generator: Adobe Illustrator 19.0.0, SVG Export Plug-In . SVG Version: 6.00 Build 0)  -->
<svg version="1.1" id="Layer_1" xmlns="http://www.w3.org/2000/svg" xmlns:xlink="http://www.w3.org/1999/xlink" x="0px" y="0px"
	 viewBox="0 0 55 55" style="enable-background:new 0 0 55 55;" xml:space="preserve">
<style type="text/css">
	.st0{fill:#FFFFFF;}
</style>
<g id="XMLID_1_">
	<circle id="XMLID_24_" class="st0" cx="27.5" cy="14.8" r="4.7"/>
	<rect id="XMLID_26_" x="27" y="5" class="st0" width="1" height="4.3"/>
	
		<rect id="XMLID_28_" x="21.6" y="7.7" transform="matrix(0.5 0.866 -0.866 0.5 18.939 -16.4177)" class="st0" width="4.3" height="1"/>
	
		<rect id="XMLID_29_" x="18.8" y="10.5" transform="matrix(0.8661 0.4999 -0.4999 0.8661 8.2902 -8.9761)" class="st0" width="4.3" height="1"/>
	<rect id="XMLID_30_" x="17.8" y="14.3" class="st0" width="4.3" height="1"/>
	
		<rect id="XMLID_31_" x="18.8" y="18.1" transform="matrix(0.8661 -0.4999 0.4999 0.8661 -6.5043 12.9397)" class="st0" width="4.3" height="1"/>
	
		<rect id="XMLID_32_" x="23.2" y="19.3" transform="matrix(-0.8661 -0.4999 0.4999 -0.8661 33.5047 51.7748)" class="st0" width="1" height="4.3"/>
	<rect id="XMLID_33_" x="27" y="20.3" class="st0" width="1" height="4.3"/>
	
		<rect id="XMLID_34_" x="29.2" y="20.9" transform="matrix(-0.4999 -0.8661 0.8661 -0.4999 28.4339 59.2165)" class="st0" width="4.3" height="1"/>
	
		<rect id="XMLID_35_" x="32" y="18.1" transform="matrix(-0.866 -0.5001 0.5001 -0.866 54.3302 51.7783)" class="st0" width="4.2" height="1"/>
	<rect id="XMLID_36_" x="33" y="14.3" class="st0" width="4.3" height="1"/>
	
		<rect id="XMLID_37_" x="32" y="10.5" transform="matrix(-0.866 0.5001 -0.5001 -0.866 69.1292 3.4403)" class="st0" width="4.2" height="1"/>
	
		<rect id="XMLID_38_" x="30.8" y="6.1" transform="matrix(0.8658 0.5003 -0.5003 0.8658 8.3004 -14.5678)" class="st0" width="1" height="4.3"/>
	<path id="XMLID_41_" class="st0" d="M27.5,0C12.3,0,0,12.3,0,27.5c0,4.4,1.1,8.8,3.1,12.7l0.3,0.6h0C8.2,49.3,17.2,55,27.5,55
		c6.3,0,12.1-2.1,16.7-5.7h0.1v0c2.9-2.3,5.4-5.1,7.2-8.4h0l0.3-0.6c2-3.9,3.1-8.3,3.1-12.7C55,12.3,42.7,0,27.5,0z M27.5,52.5
		c-4.3,0-8.5-1.1-12.2-3.2h24.4C36,51.4,31.8,52.5,27.5,52.5z M43.4,46.8H11.6c-1.3-1-2.4-2.2-3.4-3.4h38.6
		C45.8,44.6,44.6,45.8,43.4,46.8z M49.7,39.1l-0.2,0.3l-0.1,0.3c-0.2,0.4-0.5,0.8-0.7,1.2h-6.5v-7.8l4.9-4.9l-0.7-0.7l-10,10
		l0.7,0.7l4.2-4.2v6.8H28.5v-7.8l4.9-4.9l-0.7-0.7l-10,10l0.7,0.7l4.2-4.2v6.8H14.9v-7.8l4.9-4.9l-0.7-0.7l-10,10l0.7,0.7l4.1-4.1
		v6.8H6.4c-0.2-0.4-0.5-0.8-0.7-1.2l-0.1-0.2l-0.2-0.4c-1.9-3.6-2.8-7.6-2.8-11.6c0-13.8,11.2-25,25-25c13.8,0,25,11.2,25,25
		C52.5,31.5,51.5,35.5,49.7,39.1z"/>
</g>
</svg>
