<?xml version="1.0" encoding="utf-8"?>
<!-- Generator: Adobe Illustrator 19.0.0, SVG Export Plug-In . SVG Version: 6.00 Build 0)  -->
<svg version="1.1" id="Layer_1" xmlns="http://www.w3.org/2000/svg" xmlns:xlink="http://www.w3.org/1999/xlink" x="0px" y="0px"
	 viewBox="-22 23 55 55" style="enable-background:new -22 23 55 55;" xml:space="preserve">
<style type="text/css">
	.st0{fill:#FFFFFF;}
</style>
<g>
	<path class="st0" d="M-725.6,1031.1c-3.8,0-6.9,3.1-6.9,6.9c0,1.5,0.5,2.8,1.2,3.9l-12.7,12.7l0,0l0,0l-3.6,3.6l0,0l0,0l-2.3,2.3
		c-0.5,0.5-0.5,1.3,0,1.8c0.2,0.2,0.6,0.4,0.9,0.4s0.6-0.1,0.9-0.4l1.5-1.5l2.7,2.7c0.2,0.2,0.6,0.4,0.9,0.4s0.6-0.1,0.9-0.4
		c0.5-0.5,0.5-1.3,0-1.8l-2.7-2.7l1.8-1.8l2.7,2.7c0.2,0.2,0.6,0.4,0.9,0.4s0.6-0.1,0.9-0.4c0.5-0.5,0.5-1.3,0-1.8l-2.7-2.7
		l11.8-11.8c1.1,0.7,2.4,1.2,3.9,1.2c3.8,0,6.9-3.1,6.9-6.9S-721.8,1031.1-725.6,1031.1z M-725.6,1042.4c-2.4,0-4.4-2-4.4-4.4
		s2-4.4,4.4-4.4s4.4,2,4.4,4.4S-723.2,1042.4-725.6,1042.4z"/>
	<path class="st0" d="M-734.5,1020c-15.2,0-27.5,12.3-27.5,27.5c0,4.4,1.1,8.8,3.1,12.7l0.3,0.6l0,0c4.7,8.4,13.7,14.1,24,14.1
		s19.3-5.7,24-14.1l0,0l0.3-0.6c2-3.9,3.1-8.3,3.1-12.7C-707,1032.3-719.3,1020-734.5,1020z M-712.3,1059.1l-0.2,0.3l-0.1,0.3
		c-4.4,7.9-12.8,12.8-21.8,12.8c-9.1,0-17.4-4.9-21.8-12.8l-0.1-0.2l-0.2-0.4c-1.9-3.6-2.8-7.6-2.8-11.6c0-13.8,11.2-25,25-25
		s25,11.2,25,25C-709.5,1051.5-710.5,1055.5-712.3,1059.1z"/>
</g>
<g>
	<path class="st0" d="M14.4,34.1c-3.8,0-6.9,3.1-6.9,6.9c0,1.5,0.5,2.8,1.2,3.9L-9.9,63.5c-0.5,0.5-0.5,1.3,0,1.8
		c0.2,0.2,0.6,0.4,0.9,0.4s0.6-0.1,0.9-0.4l1.5-1.5l2.7,2.7c0.2,0.2,0.6,0.4,0.9,0.4s0.6-0.1,0.9-0.4c0.5-0.5,0.5-1.3,0-1.8
		l-2.7-2.7l1.8-1.8l2.7,2.7c0.2,0.2,0.6,0.4,0.9,0.4s0.6-0.1,0.9-0.4c0.5-0.5,0.5-1.3,0-1.8l-2.7-2.7l11.8-11.8
		c1.1,0.7,2.4,1.2,3.9,1.2c3.8,0,6.9-3.1,6.9-6.9S18.2,34.1,14.4,34.1z M14.4,45.4c-2.4,0-4.4-2-4.4-4.4s2-4.4,4.4-4.4
		s4.4,2,4.4,4.4S16.8,45.4,14.4,45.4z"/>
	<path class="st0" d="M5.5,23C-9.7,23-22,35.3-22,50.5c0,4.4,1.1,8.8,3.1,12.7l0.3,0.6h0C-13.8,72.3-4.8,78,5.5,78
		c10.3,0,19.3-5.7,24-14.1h0l0.3-0.6c2-3.9,3.1-8.3,3.1-12.7C33,35.3,20.7,23,5.5,23z M27.7,62.1l-0.2,0.3l-0.1,0.3
		c-4.4,7.9-12.8,12.8-21.8,12.8c-9.1,0-17.4-4.9-21.8-12.8l-0.1-0.2l-0.2-0.4c-1.9-3.6-2.8-7.6-2.8-11.6c0-13.8,11.2-25,25-25
		c13.8,0,25,11.2,25,25C30.5,54.5,29.5,58.5,27.7,62.1z"/>
</g>
</svg>
