<?xml version="1.0" encoding="utf-8"?>
<!-- Generator: Adobe Illustrator 19.0.0, SVG Export Plug-In . SVG Version: 6.00 Build 0)  -->
<svg version="1.1" id="Layer_1" xmlns="http://www.w3.org/2000/svg" xmlns:xlink="http://www.w3.org/1999/xlink" x="0px" y="0px"
	 viewBox="-22 23 55 55" style="enable-background:new -22 23 55 55;" xml:space="preserve">
<style type="text/css">
	.st0{fill:#FFFFFF;}
</style>
<g id="XMLID_351_">
	<g id="New_Symbol_36_3_">
		<g id="XMLID_367_">
			<path class="st0" d="M5.5,25.5c13.8,0,25,11.2,25,25c0,4-1,8-2.8,11.6l-0.2,0.3l-0.1,0.3c-4.4,7.9-12.8,12.8-21.8,12.8
				c-9.1,0-17.4-4.9-21.8-12.8l-0.1-0.2l-0.2-0.4c-1.9-3.6-2.8-7.6-2.8-11.6C-19.5,36.7-8.3,25.5,5.5,25.5 M5.5,23
				C-9.7,23-22,35.3-22,50.5c0,4.4,1.1,8.8,3.1,12.7l0.3,0.6h0C-13.8,72.3-4.8,78,5.5,78c10.3,0,19.3-5.7,24-14.1h0l0.3-0.6
				c2-3.9,3.1-8.3,3.1-12.7C33,35.3,20.7,23,5.5,23L5.5,23z"/>
		</g>
	</g>
	<path id="XMLID_363_" class="st0" d="M1,28.8c0,0,7.1,5,0,15.3c-6.4,9.3-10.3,19.2-3.2,26.6c2.1,2.1,4.5,3.2,7,3.5
		c-4-1.2-7-5.2-3.5-12.4c2.1-4.4,7.5-9.6,5.7-15.7c0,0,4.8,6.1,1.5,15.3c-1.5,4.2,5.1,4.7,3.3,0.1c-1.1-2.8,5.1,5.5,1.8,10.3
		c3.1-2.2,4.8-5.7,6.1-9.5C23.2,51.5,18.5,34.2,1,28.8z"/>
</g>
</svg>
