<?xml version="1.0" encoding="utf-8"?>
<!-- Generator: Adobe Illustrator 19.0.0, SVG Export Plug-In . SVG Version: 6.00 Build 0)  -->
<svg version="1.1" id="Layer_1" xmlns="http://www.w3.org/2000/svg" xmlns:xlink="http://www.w3.org/1999/xlink" x="0px" y="0px"
	 viewBox="-22 23 55 55" style="enable-background:new -22 23 55 55;" xml:space="preserve">
<style type="text/css">
	.st0{fill:#FFFFFF;}
</style>
<g id="New_Symbol_35">
	<g id="New_Symbol_36">
		<g id="New_Symbol_37">
			<g>
				<path class="st0" d="M5.5,23C-9.7,23-22,35.3-22,50.5c0,4.4,1.1,8.8,3.1,12.7l0.3,0.6h0c0.3,0.6,0.7,1.2,1.1,1.8h0c0,0,0,0,0,0
					c1.2,1.8,2.7,3.5,4.3,5c0,0,0,0,0.1,0c0.3,0.3,0.7,0.6,1,0.9c0.1,0.1,0.2,0.2,0.3,0.3c0.3,0.2,0.6,0.5,0.9,0.7
					c0.2,0.1,0.3,0.2,0.5,0.3c0.2,0.1,0.4,0.3,0.6,0.4v0.1h0.2c0,0,0.1,0,0.1,0.1c0.2,0.1,0.4,0.2,0.6,0.4c0.3,0.2,0.6,0.3,0.9,0.5
					c0.2,0.1,0.4,0.2,0.7,0.4c0.3,0.2,0.6,0.3,0.9,0.4c0.2,0.1,0.5,0.2,0.7,0.3c0.3,0.1,0.6,0.2,0.8,0.4c0.3,0.1,0.5,0.2,0.8,0.3
					c0.3,0.1,0.5,0.2,0.8,0.3c0.3,0.1,0.6,0.2,0.9,0.3C-2.2,76.9-2,77-1.7,77c0.3,0.1,0.6,0.2,1,0.2c0.3,0.1,0.5,0.1,0.8,0.2
					c0.4,0.1,0.7,0.1,1.1,0.2c0.2,0,0.5,0.1,0.7,0.1c0.4,0.1,0.8,0.1,1.3,0.1c0.2,0,0.4,0,0.6,0.1C4.3,78,4.9,78,5.5,78
					s1.2,0,1.9-0.1c0.2,0,0.4,0,0.6-0.1c0.4,0,0.8-0.1,1.3-0.1c0.2,0,0.5-0.1,0.7-0.1c0.4-0.1,0.7-0.1,1.1-0.2
					c0.3-0.1,0.5-0.1,0.8-0.2c0.3-0.1,0.7-0.2,1-0.2c0.3-0.1,0.5-0.2,0.8-0.2c0.3-0.1,0.6-0.2,0.9-0.3c0.3-0.1,0.5-0.2,0.8-0.3
					c0.3-0.1,0.5-0.2,0.8-0.3c0.3-0.1,0.6-0.2,0.8-0.4c0.2-0.1,0.5-0.2,0.7-0.3c0.3-0.1,0.6-0.3,0.9-0.4c0.2-0.1,0.4-0.2,0.7-0.4
					c0.3-0.2,0.6-0.3,0.9-0.5c0.2-0.1,0.4-0.2,0.6-0.4c0,0,0.1,0,0.1-0.1h0.2v-0.1c0.2-0.1,0.4-0.3,0.6-0.4c0.2-0.1,0.3-0.2,0.5-0.3
					c0.3-0.2,0.6-0.5,0.9-0.7c0.1-0.1,0.2-0.2,0.3-0.3c0.3-0.3,0.7-0.6,1-0.9c0,0,0,0,0.1-0.1c1.6-1.5,3-3.2,4.2-5c0,0,0,0,0,0h0
					c0.4-0.6,0.7-1.2,1.1-1.8h0l0.3-0.6c2-3.9,3.1-8.3,3.1-12.7C33,35.3,20.7,23,5.5,23z M30.5,50.3c-2.1,0.1-4.1,0.2-6.2,0.2
					c-4,0-7.9-0.2-11.5-0.6l-0.2-2.1c3.9-1.4,6.7-3.2,7.9-5.1c1,4.3,4.9,7.5,9.5,7.5c0.1,0,0.2,0,0.4,0
					C30.5,50.3,30.5,50.3,30.5,50.3z M22.2,69.1c-0.1,0.1-0.2,0.1-0.3,0.2c-0.3,0.3-0.6,0.5-1,0.8c-0.1,0.1-0.2,0.1-0.2,0.2
					c-0.3,0.2-0.6,0.4-0.9,0.7H-8.9c-0.3-0.2-0.6-0.4-0.9-0.7c-0.1-0.1-0.2-0.1-0.2-0.2c-0.3-0.3-0.6-0.5-0.9-0.8
					c-0.1-0.1-0.2-0.2-0.3-0.2c-0.3-0.3-0.7-0.6-1-0.9h35.4C22.9,68.5,22.5,68.8,22.2,69.1z M12.1,74.6c-1,0.3-2.1,0.5-3.1,0.6
					c-0.1,0-0.2,0-0.3,0c-0.4,0.1-0.9,0.1-1.3,0.1c-0.1,0-0.2,0-0.3,0c-0.5,0-1,0.1-1.6,0.1s-1,0-1.6-0.1c-0.1,0-0.2,0-0.3,0
					c-0.4,0-0.9-0.1-1.3-0.1c-0.1,0-0.2,0-0.3,0C1,75.1,0,74.9-1.1,74.6c0,0-0.1,0-0.1,0c-1.1-0.3-2.2-0.7-3.2-1.1h19.8
					C14.4,73.9,13.3,74.3,12.1,74.6C12.1,74.6,12.1,74.6,12.1,74.6z M-19.5,50.2c0.1,0,0.2,0,0.4,0c4.6,0,8.5-3.2,9.5-7.5
					c1.3,2.1,4.5,4,8.9,5.5l-0.1,1.6c-3.9,0.5-8.1,0.8-12.5,0.8c-2.1,0-4.2-0.1-6.2-0.2C-19.5,50.3-19.5,50.3-19.5,50.2z M12.2,42.5
					l7.9-1c-0.7,2-3.5,3.8-7.5,5.3l0-0.3l0,0l0,0L12.2,42.5z M7.2,48.4c-0.5,0.1-1.1,0.3-1.7,0.4c-1.4-0.3-2.8-0.6-4.1-1l0.4-5.2
					l8.5,4L7.2,48.4z M2.1,41.6l7.5-5.5c0,0.1,0,0.1,0,0.2l0.8,9.1L2.1,41.6z M2,40.4l0.4-4.1c0-0.6,0.4-1.1,0.7-1.1h5.8
					c0,0,0.1,0,0.1,0L2,40.4z M-0.5,47.1c-4.7-1.6-7.9-3.6-8.6-5.8l9,1.1L-0.5,47.1z M1.3,48.8c0.5,0.1,1.1,0.3,1.6,0.4
					c-0.6,0.1-1.1,0.2-1.7,0.3L1.3,48.8z M4.3,50l-3.2,1.8l0.1-1.3C2.2,50.4,3.3,50.2,4.3,50z M0.9,53.8L11.5,59L0.6,65.6h-0.7
					L0.9,53.8z M2.5,65.6l9.1-5.6l0.5,5.6H2.5z M1.3,52.9L6.4,50c1.4,0.3,2.9,0.5,4.5,0.7l0.6,7.2L1.3,52.9z M8,49.2
					c0.9-0.2,1.8-0.5,2.6-0.7l0.1,1.2C9.8,49.5,8.9,49.4,8,49.2z M5.5,25.5c13.4,0,24.3,10.5,25,23.7c-0.1,0-0.2,0-0.3,0
					c-4.5,0-8.3-3.5-8.8-7.9l3.7-0.5v-1.5H11.9l-0.3-3.2c-0.1-1.7-1.3-2.9-2.7-2.9H3.1c-1.4,0-2.6,1.3-2.7,2.9l-0.3,3.3h-13.2v1.5
					l2.7,0.3c-0.4,4.5-4.2,8-8.8,8c-0.1,0-0.2,0-0.3,0C-18.8,36-7.9,25.5,5.5,25.5z M-16.3,62.7l-0.1-0.2l-0.2-0.4
					c-1.7-3.3-2.7-7-2.8-10.7c2,0.1,4.1,0.2,6.2,0.2c4.4,0,8.6-0.3,12.4-0.7l-1.3,14.8h-12.3C-15.1,64.7-15.8,63.7-16.3,62.7z
					 M27.7,62.1l-0.2,0.3l-0.1,0.3c-0.6,1.1-1.2,2-2,3H14.1l-1.3-14.7c3.5,0.4,7.4,0.6,11.4,0.6c2.1,0,4.2-0.1,6.2-0.2
					C30.3,55.1,29.4,58.8,27.7,62.1z"/>
				<rect x="-11.6" y="36.5" class="st0" width="1.4" height="2.9"/>
				<rect x="-8.3" y="36.5" class="st0" width="1.4" height="2.9"/>
				<rect x="22.2" y="36.5" class="st0" width="1.4" height="2.9"/>
				<rect x="19" y="36.5" class="st0" width="1.4" height="2.9"/>
			</g>
		</g>
	</g>
</g>
</svg>
