<?xml version="1.0" encoding="utf-8"?>
<!-- Generator: Adobe Illustrator 19.0.0, SVG Export Plug-In . SVG Version: 6.00 Build 0)  -->
<svg version="1.1" id="Layer_1" xmlns="http://www.w3.org/2000/svg" xmlns:xlink="http://www.w3.org/1999/xlink" x="0px" y="0px"
	 viewBox="0 0 200 200" style="enable-background:new 0 0 200 200;" xml:space="preserve">
<style type="text/css">
	.st0{fill:#F27F00;}
</style>
<path id="XMLID_8_" class="st0" d="M100,14.7c-47.1,0-85.3,38.3-85.3,85.3s38.3,85.3,85.3,85.3s85.3-38.3,85.3-85.3
	S147.1,14.7,100,14.7z M171.9,100c0,17.4-6.2,33.4-16.6,45.9L54.1,44.7C66.6,34.3,82.6,28.1,100,28.1
	C139.7,28.1,171.9,60.3,171.9,100z M28.1,100c0-17.4,6.2-33.4,16.6-45.9l101.2,101.2c-12.5,10.3-28.4,16.6-45.9,16.6
	C60.3,171.9,28.1,139.7,28.1,100z"/>
</svg>
