<?xml version="1.0" encoding="utf-8"?>
<!-- Generator: Adobe Illustrator 19.0.0, SVG Export Plug-In . SVG Version: 6.00 Build 0)  -->
<svg version="1.1" id="Layer_1" xmlns="http://www.w3.org/2000/svg" xmlns:xlink="http://www.w3.org/1999/xlink" x="0px" y="0px"
	 viewBox="0 0 100 100" style="enable-background:new 0 0 100 100;" xml:space="preserve">
<style type="text/css">
	.st0{fill:#FFFFFF;}
</style>
<g id="XMLID_1_">
	<path id="XMLID_181_" class="st0" d="M52.2,28.6h-4.4c-1.7,0-3-1.3-3-3v-4.4c0-1.7,1.3-3,3-3h4.4c1.7,0,3,1.3,3,3v4.4
		C55.2,27.3,53.9,28.6,52.2,28.6z"/>
	<path id="XMLID_177_" class="st0" d="M52.2,55.2h-4.4c-1.7,0-3-1.3-3-3v-4.4c0-1.7,1.3-3,3-3h4.4c1.7,0,3,1.3,3,3v4.4
		C55.2,53.9,53.9,55.2,52.2,55.2z"/>
	<path id="XMLID_176_" class="st0" d="M52.2,81.8h-4.4c-1.7,0-3-1.3-3-3v-4.4c0-1.7,1.3-3,3-3h4.4c1.7,0,3,1.3,3,3v4.4
		C55.2,80.4,53.9,81.8,52.2,81.8z"/>
</g>
</svg>
