<svg xmlns="http://www.w3.org/2000/svg" xmlns:xlink="http://www.w3.org/1999/xlink" version="1.1" baseProfile="tiny" x="0px" y="0px" viewBox="0 0 100 125" xml:space="preserve"><g><path fill-rule="evenodd" fill="#000000" d="M50.141,64.48L57.66,72c0,0,31.6-31.539,31.58-31.561c3.699-3.719,3.66-5.359,0-9.02   c0.02-0.039-3.021-3.02-3.021-3.02L50.141,64.48z M46.719,61.061l36.082-36.08l-7.102-7.1l-36.078,36.08L46.719,61.061z    M72.699,14.881l-3-3c-3.82-3.82-5.18-3.861-9.02,0L29.1,43.439l7.521,7.521L72.699,14.881z M26.1,46.439L12,89l42.66-14   L26.1,46.439z M23.1,67.721l10.521,10.52L18.4,82.76L23.1,67.721z"/></g><text x="0" y="115" fill="#000000" font-size="5px" font-weight="bold" font-family="'Helvetica Neue', Helvetica, Arial-Unicode, Arial, Sans-serif">Created by Icomatic</text><text x="0" y="120" fill="#000000" font-size="5px" font-weight="bold" font-family="'Helvetica Neue', Helvetica, Arial-Unicode, Arial, Sans-serif">from the Noun Project</text></svg>