<?xml version="1.0" encoding="utf-8"?>
<!-- Generator: Adobe Illustrator 19.0.0, SVG Export Plug-In . SVG Version: 6.00 Build 0)  -->
<svg version="1.1" id="Layer_1" xmlns="http://www.w3.org/2000/svg" xmlns:xlink="http://www.w3.org/1999/xlink" x="0px" y="0px"
	 viewBox="-909 491 100 100" style="enable-background:new -909 491 100 100;" xml:space="preserve">
<style type="text/css">
	.st0{enable-background:new    ;}
	.st1{fill:#FFFFFF;}
</style>
<g id="XMLID_2_" class="st0">
	<path class="st1" d="M-859,501.6c21.8,0,39.5,17.7,39.5,39.5c0,21.8-17.7,39.5-39.5,39.5s-39.5-17.7-39.5-39.5
		C-898.5,519.2-880.8,501.6-859,501.6 M-859,495.9c-24.9,0-45.1,20.2-45.1,45.1c0,24.9,20.2,45.1,45.1,45.1
		c24.9,0,45.1-20.2,45.1-45.1C-813.9,516.1-834.1,495.9-859,495.9L-859,495.9z"/>
</g>
<polygon class="st1" points="-834.8,544.6 -855.4,544.6 -855.4,565.2 -862.6,565.2 -862.6,544.6 -883.2,544.6 -883.2,537.4 
	-862.6,537.4 -862.6,516.8 -855.4,516.8 -855.4,537.4 -834.8,537.4 "/>
</svg>
