<?xml version="1.0" encoding="utf-8"?>
<!-- Generator: Adobe Illustrator 19.0.0, SVG Export Plug-In . SVG Version: 6.00 Build 0)  -->
<svg version="1.1" id="Layer_1" xmlns="http://www.w3.org/2000/svg" xmlns:xlink="http://www.w3.org/1999/xlink" x="0px" y="0px"
	 viewBox="-222 404.2 104.8 33.7" style="enable-background:new -222 404.2 104.8 33.7;" xml:space="preserve">
<style type="text/css">
	.st0{opacity:0.5;fill:#818181;enable-background:new    ;}
	.st1{fill:#FFFFFF;}
</style>
<g id="XMLID_144_">
	<path class="st0" d="M-117.2,404.2H-212c-5.5,0-10,4.5-10,10v13.7c0,5.5,4.5,10,10,10h94.8V404.2z M-191.4,430
		c-0.4,0.4-0.9,0.6-1.4,0.6s-1-0.2-1.4-0.6l-6.1-6.1l-6.1,6.1c-0.4,0.4-0.9,0.6-1.4,0.6s-1-0.2-1.4-0.6c-0.8-0.8-0.8-2,0-2.8
		l6.1-6.1l-6.1-6.1c-0.8-0.8-0.8-2,0-2.8s2-0.8,2.8,0l6.1,6.1l6.1-6.1c0.8-0.8,2-0.8,2.8,0c0.8,0.8,0.8,2,0,2.8l-6.1,6.1l6.1,6.1
		C-190.6,428-190.6,429.2-191.4,430z"/>
	<g id="XMLID_191_">
		<path id="XMLID_146_" class="st1" d="M-177.4,422.2h-2.2v5h-2.8v-13.6h5c1.6,0,2.8,0.4,3.7,1.1c0.9,0.7,1.3,1.7,1.3,3
			c0,0.9-0.2,1.7-0.6,2.3s-1,1.1-1.8,1.5l2.9,5.5v0.2h-3L-177.4,422.2z M-179.6,420h2.2c0.7,0,1.2-0.2,1.6-0.5
			c0.4-0.4,0.6-0.8,0.6-1.5c0-0.6-0.2-1.1-0.5-1.5c-0.4-0.4-0.9-0.5-1.7-0.5h-2.2C-179.6,416-179.6,420-179.6,420z"/>
		<path id="XMLID_149_" class="st1" d="M-165.8,427.3c-1.5,0-2.7-0.5-3.6-1.4s-1.4-2.1-1.4-3.6V422c0-1,0.2-1.9,0.6-2.7
			c0.4-0.8,0.9-1.4,1.7-1.8c0.7-0.4,1.5-0.6,2.4-0.6c1.4,0,2.5,0.4,3.2,1.3c0.8,0.9,1.2,2.1,1.2,3.7v1.1h-6.4
			c0.1,0.7,0.3,1.2,0.8,1.6c0.4,0.4,1,0.6,1.7,0.6c1,0,1.8-0.4,2.4-1.1l1.3,1.5c-0.4,0.6-0.9,1-1.6,1.3
			C-164.2,427.2-165,427.3-165.8,427.3z M-166.1,419.1c-0.5,0-1,0.2-1.3,0.5c-0.3,0.4-0.5,0.9-0.6,1.5h3.7v-0.2
			c0-0.6-0.2-1.1-0.5-1.4C-165.1,419.2-165.6,419.1-166.1,419.1z"/>
		<path id="XMLID_152_" class="st1" d="M-156.5,423.9l1.9-6.8h2.8l-3.4,10h-2.6l-3.4-10h2.8L-156.5,423.9z"/>
		<path id="XMLID_154_" class="st1" d="M-146.2,427.3c-1.5,0-2.7-0.5-3.6-1.4c-0.9-0.9-1.4-2.1-1.4-3.6V422c0-1,0.2-1.9,0.6-2.7
			c0.4-0.8,0.9-1.4,1.7-1.8c0.7-0.4,1.5-0.6,2.4-0.6c1.4,0,2.5,0.4,3.2,1.3c0.8,0.9,1.2,2.1,1.2,3.7v1.1h-6.4
			c0.1,0.7,0.3,1.2,0.8,1.6c0.4,0.4,1,0.6,1.7,0.6c1,0,1.8-0.4,2.4-1.1l1.3,1.5c-0.4,0.6-0.9,1-1.6,1.3
			C-144.6,427.2-145.4,427.3-146.2,427.3z M-146.5,419.1c-0.5,0-1,0.2-1.3,0.5c-0.3,0.4-0.5,0.9-0.6,1.5h3.7v-0.2
			c0-0.6-0.2-1.1-0.5-1.4C-145.5,419.2-145.9,419.1-146.5,419.1z"/>
		<path id="XMLID_170_" class="st1" d="M-134.9,419.6c-0.4,0-0.7-0.1-1-0.1c-1,0-1.7,0.3-2,1v6.7h-2.7v-10h2.6l0.1,1.2
			c0.5-0.9,1.3-1.4,2.2-1.4c0.3,0,0.6,0,0.8,0.1V419.6z"/>
		<path id="XMLID_172_" class="st1" d="M-129.9,414.6v2.5h1.7v2h-1.7v5c0,0.4,0.1,0.6,0.2,0.8c0.1,0.2,0.4,0.2,0.8,0.2
			c0.3,0,0.6,0,0.8-0.1v2c-0.5,0.2-1.1,0.2-1.6,0.2c-1.9,0-2.8-0.9-2.9-2.8V419h-1.5v-2h1.5v-2.5h2.7V414.6z"/>
	</g>
</g>
</svg>
