<?xml version="1.0" encoding="utf-8"?>
<!-- Generator: Adobe Illustrator 19.0.0, SVG Export Plug-In . SVG Version: 6.00 Build 0)  -->
<svg version="1.1" id="Layer_1" xmlns="http://www.w3.org/2000/svg" xmlns:xlink="http://www.w3.org/1999/xlink" x="0px" y="0px"
	 viewBox="-252 404.2 90.7 33.7" style="enable-background:new -252 404.2 90.7 33.7;" xml:space="preserve">
<style type="text/css">
	.st0{opacity:0.5;fill:#FFFFFF;enable-background:new    ;}
	.st1{fill:#FFFFFF;}
</style>
<g id="XMLID_148_">
	<path id="XMLID_144_" class="st0" d="M-473.4,831.4c0.8,0.8,0.8,2,0,2.8c-0.4,0.4-0.9,0.6-1.4,0.6s-1-0.2-1.4-0.6l-6.1-6.1
		l-6.1,6.1c-0.4,0.4-0.9,0.6-1.4,0.6s-1-0.2-1.4-0.6c-0.8-0.8-0.8-2,0-2.8l6.1-6.1l-6.1-6.1c-0.8-0.8-0.8-2,0-2.8s2-0.8,2.8,0
		l6.1,6.1l6.1-6.1c0.8-0.8,2-0.8,2.8,0s0.8,2,0,2.8l-6.1,6.1L-473.4,831.4z M-422.2,820l-13.3,13.3c-0.4,0.4-0.9,0.6-1.4,0.6
		s-1-0.2-1.4-0.6l-7.4-7.4c-0.8-0.8-0.8-2,0-2.8s2-0.8,2.8,0l6,6l11.9-11.9c0.8-0.8,2-0.8,2.8,0C-421.4,818-421.4,819.2-422.2,820z"
		/>
	<g id="XMLID_193_">
		<rect id="XMLID_149_" x="-459.2" y="813" class="st1" width="1" height="24.4"/>
	</g>
</g>
<g id="XMLID_527_">
	<path id="XMLID_858_" class="st1" d="M-221.4,427.2c0.8,0.8,0.8,2,0,2.8c-0.4,0.4-0.9,0.6-1.4,0.6s-1-0.2-1.4-0.6l-6.1-6.1
		l-6.1,6.1c-0.4,0.4-0.9,0.6-1.4,0.6s-1-0.2-1.4-0.6c-0.8-0.8-0.8-2,0-2.8l6.1-6.1l-6.1-6.1c-0.8-0.8-0.8-2,0-2.8s2-0.8,2.8,0
		l6.1,6.1l6.1-6.1c0.8-0.8,2-0.8,2.8,0s0.8,2,0,2.8l-6.1,6.1L-221.4,427.2z M-170.2,415.8l-13.3,13.3c-0.4,0.4-0.9,0.6-1.4,0.6
		s-1-0.2-1.4-0.6l-7.4-7.4c-0.8-0.8-0.8-2,0-2.8s2-0.8,2.8,0l6,6L-173,413c0.8-0.8,2-0.8,2.8,0S-169.4,415-170.2,415.8z"/>
	<g id="XMLID_1_">
		<rect x="-207.2" y="408.8" class="st1" width="1" height="24.4"/>
	</g>
</g>
</svg>
