<?xml version="1.0" encoding="utf-8"?>
<!-- Generator: Adobe Illustrator 19.0.0, SVG Export Plug-In . SVG Version: 6.00 Build 0)  -->
<svg version="1.1" id="Layer_1" xmlns="http://www.w3.org/2000/svg" xmlns:xlink="http://www.w3.org/1999/xlink" x="0px" y="0px"
	 viewBox="-182.2 404.2 110.9 33.7" style="enable-background:new -182.2 404.2 110.9 33.7;" xml:space="preserve">
<style type="text/css">
	.st0{opacity:0.5;fill:#818181;enable-background:new    ;}
	.st1{fill:#FFFFFF;}
</style>
<g id="XMLID_144_">
	<path class="st0" d="M-81.3,404.2h-100.9v33.7h100.9c5.5,0,10-4.5,10-10v-13.7C-71.3,408.7-75.8,404.2-81.3,404.2z M-80.2,415.8
		l-13.3,13.3c-0.4,0.4-0.9,0.6-1.4,0.6s-1-0.2-1.4-0.6l-7.4-7.4c-0.8-0.8-0.8-2,0-2.8s2-0.8,2.8,0l6,6L-83,413c0.8-0.8,2-0.8,2.8,0
		C-79.4,413.8-79.4,415-80.2,415.8z"/>
	<g id="XMLID_195_">
		<path id="XMLID_147_" class="st1" d="M-158.2,423.6c0-0.5-0.2-0.9-0.6-1.2c-0.4-0.3-1-0.6-2-0.9s-1.7-0.6-2.3-0.9
			c-1.5-0.8-2.3-1.9-2.3-3.3c0-0.7,0.2-1.4,0.6-2c0.4-0.6,1-1,1.8-1.3c0.8-0.3,1.6-0.5,2.6-0.5s1.8,0.2,2.6,0.5
			c0.8,0.3,1.3,0.8,1.8,1.5c0.4,0.6,0.6,1.4,0.6,2.2h-2.8c0-0.6-0.2-1.1-0.6-1.4c-0.4-0.3-0.9-0.5-1.6-0.5s-1.2,0.1-1.6,0.4
			c-0.4,0.3-0.6,0.7-0.6,1.1s0.2,0.8,0.7,1.1c0.5,0.3,1.1,0.6,2,0.8c1.6,0.5,2.7,1.1,3.5,1.8c0.7,0.7,1.1,1.6,1.1,2.6
			c0,1.2-0.4,2.1-1.3,2.8c-0.9,0.7-2.1,1-3.6,1c-1,0-2-0.2-2.8-0.6c-0.9-0.4-1.5-0.9-2-1.6c-0.5-0.7-0.7-1.4-0.7-2.3h2.7
			c0,1.5,0.9,2.2,2.7,2.2c0.7,0,1.2-0.1,1.5-0.4C-158.4,424.5-158.2,424.1-158.2,423.6z"/>
		<path id="XMLID_149_" class="st1" d="M-147.9,427.2c-0.1-0.2-0.2-0.5-0.3-0.9c-0.7,0.7-1.5,1.1-2.5,1.1s-1.8-0.3-2.4-0.9
			c-0.6-0.6-1-1.3-1-2.2c0-1.1,0.4-1.9,1.2-2.4c0.8-0.6,1.9-0.9,3.4-0.9h1.2v-0.6c0-0.5-0.1-0.8-0.4-1.1c-0.2-0.3-0.6-0.4-1.1-0.4
			s-0.8,0.1-1.1,0.3c-0.3,0.2-0.4,0.5-0.4,0.9h-2.7c0-0.6,0.2-1.1,0.5-1.6c0.4-0.5,0.9-0.9,1.5-1.2c0.7-0.3,1.4-0.4,2.2-0.4
			c1.2,0,2.2,0.3,2.9,0.9c0.7,0.6,1.1,1.5,1.1,2.6v4.4c0,1,0.1,1.7,0.4,2.2v0.2H-147.9z M-150.1,425.3c0.4,0,0.8-0.1,1.1-0.3
			c0.3-0.2,0.6-0.4,0.7-0.7v-1.7h-1c-1.3,0-2.1,0.5-2.1,1.4v0.2c0,0.3,0.1,0.6,0.4,0.8C-150.8,425.2-150.5,425.3-150.1,425.3z"/>
		<path id="XMLID_152_" class="st1" d="M-139.9,423.9l1.9-6.8h2.8l-3.4,10h-2.6l-3.4-10h2.8L-139.9,423.9z"/>
		<path id="XMLID_154_" class="st1" d="M-129.6,427.3c-1.5,0-2.7-0.5-3.6-1.4c-0.9-0.9-1.4-2.1-1.4-3.6V422c0-1,0.2-1.9,0.6-2.7
			c0.4-0.8,0.9-1.4,1.7-1.8c0.7-0.4,1.5-0.6,2.4-0.6c1.4,0,2.5,0.4,3.2,1.3c0.8,0.9,1.2,2.1,1.2,3.7v1.1h-6.4
			c0.1,0.7,0.3,1.2,0.8,1.6c0.4,0.4,1,0.6,1.7,0.6c1,0,1.8-0.4,2.4-1.1l1.3,1.5c-0.4,0.6-0.9,1-1.6,1.3
			C-128,427.2-128.7,427.3-129.6,427.3z M-129.9,419.1c-0.5,0-1,0.2-1.3,0.5c-0.3,0.4-0.5,0.9-0.6,1.5h3.7v-0.2
			c0-0.6-0.2-1.1-0.5-1.4S-129.3,419.1-129.9,419.1z"/>
	</g>
</g>
</svg>
