<?xml version="1.0" encoding="utf-8"?>
<!-- Generator: Adobe Illustrator 19.0.0, SVG Export Plug-In . SVG Version: 6.00 Build 0)  -->
<svg version="1.1" id="Layer_1" xmlns="http://www.w3.org/2000/svg" xmlns:xlink="http://www.w3.org/1999/xlink" x="0px" y="0px"
	 viewBox="0 0 100 100" style="enable-background:new 0 0 100 100;" xml:space="preserve">
<style type="text/css">
	.st0{fill:#FFFFFF;}
</style>
<g id="New_Symbol_44">
	<path id="XMLID_12_" class="st0" d="M70.4,66.5l-0.9,0.9l-4.6-4.6c5.5-5.9,8.9-13.8,8.9-22.5C73.8,22,58.9,7.1,40.6,7.1
		C22.3,7.1,7.4,22,7.4,40.3s14.9,33.2,33.2,33.2c8.7,0,16.6-3.4,22.5-8.9l4.6,4.6l-0.9,0.9l23,23l0.9-0.9l1.8-1.8l0.9-0.9L70.4,66.5
		z M40.6,68.3c-15.5,0-28.1-12.6-28.1-28.1s12.6-28.1,28.1-28.1c15.5,0,28.1,12.6,28.1,28.1S56.1,68.3,40.6,68.3z"/>
</g>
</svg>
