<svg xmlns="http://www.w3.org/2000/svg" xmlns:xlink="http://www.w3.org/1999/xlink" version="1.1" x="0px" y="0px" viewBox="0 0 72 90" enable-background="new 0 0 72 72" xml:space="preserve"><path fill="#000000" d="M49.6,22l20.6-4.8c0.6-0.1,1-0.7,1-1.3v-1.1c0-0.7-0.6-1.3-1.3-1.3h-2.7c-0.1,0-0.3-0.1-0.3-0.3V9.3  c0-1-0.7-1.9-1.6-2.1c-1.2-0.2-2.3,0.8-2.3,2v4c0,0.1-0.1,0.3-0.3,0.3h-6.3c-0.1,0-0.3-0.1-0.3-0.3V9.3c0-1-0.7-1.9-1.6-2.1  c-1.2-0.2-2.3,0.8-2.3,2v4c0,0.1-0.1,0.3-0.3,0.3h-3.1c-0.7,0-1.2-0.5-1.3-1.2l-0.9-8.9c-0.2-1.7-1.5-2.9-3-2.9H29  c-1.5,0-2.8,1.2-3,2.9l-0.9,8.9c-0.1,0.7-0.6,1.2-1.3,1.2h-3.6c-0.1,0-0.3-0.1-0.3-0.3V9.3c0-1-0.7-1.9-1.6-2.1  c-1.2-0.2-2.3,0.8-2.3,2v4c0,0.1-0.1,0.3-0.3,0.3H9.3c-0.1,0-0.3-0.1-0.3-0.3V9.3c0-1-0.7-1.9-1.6-2.1C6.2,7.1,5.1,8,5.1,9.2v4  c0,0.1-0.1,0.3-0.3,0.3H2.1c-0.7,0-1.3,0.6-1.3,1.3v1.1c0,0.6,0.4,1.1,1,1.3L23,22.1c0.6,0.1,1.1,0.8,1,1.4l-3.3,31.7  c0,0.3-0.3,0.6-0.6,0.6H4.7v0H3.8c-1.7,0-3,1.4-3,3.3v9.2c0,1.8,1.3,3.3,3,3.3h64.3c1.7,0,3.1-1.5,3.1-3.4v-8.8  c0-1.9-1.4-3.4-3.1-3.4l-0.1,0v-0.1H52.5c-0.3,0-0.6-0.2-0.6-0.6l-3.3-31.8C48.5,22.7,49,22.1,49.6,22z M45.2,28.8l1.3,12.6  c0.1,0.5-0.5,0.9-0.9,0.6l-14.1-6.9c-0.5-0.2-0.5-0.9,0-1.2l12.7-5.7C44.7,28.1,45.1,28.4,45.2,28.8z M43,7.6l1.4,13.1  c0.1,0.5-0.6,0.9-1,0.6l-10.8-7.6c-0.4-0.3-0.4-0.8,0-1.1L42,7.1C42.4,6.9,42.9,7.1,43,7.6z M29.9,5c0-0.3,0.3-0.6,0.6-0.6h5.8  c0.6,0,0.9,0.9,0.3,1.2l-6.2,3.6c-0.4,0.3-1-0.1-0.9-0.6L29.9,5z M28.6,16.9c0.1-0.5,0.6-0.7,1-0.5l11.3,8c0.4,0.3,0.3,0.9-0.1,1.1  l-12.7,5.7c-0.4,0.2-0.9-0.2-0.9-0.6L28.6,16.9z M24.9,52.4L26.4,38c0-0.4,0.5-0.7,0.9-0.5l14.8,7.3c0.5,0.2,0.5,0.9,0,1.2L25.8,53  C25.4,53.2,24.9,52.8,24.9,52.4z M47.3,55.8H32.5c-0.7,0-0.9-0.9-0.3-1.2l14.1-6.1c0.4-0.2,0.8,0.1,0.9,0.5l0.6,6.1  C47.9,55.4,47.6,55.8,47.3,55.8z"/><text x="0" y="87" fill="#000000" font-size="5px" font-weight="bold" font-family="'Helvetica Neue', Helvetica, Arial-Unicode, Arial, Sans-serif">Created by Creative Stall</text><text x="0" y="92" fill="#000000" font-size="5px" font-weight="bold" font-family="'Helvetica Neue', Helvetica, Arial-Unicode, Arial, Sans-serif">from the Noun Project</text></svg>