<?xml version="1.0" encoding="utf-8"?>
<!-- Generator: Adobe Illustrator 19.0.0, SVG Export Plug-In . SVG Version: 6.00 Build 0)  -->
<svg version="1.1" id="Layer_1" xmlns="http://www.w3.org/2000/svg" xmlns:xlink="http://www.w3.org/1999/xlink" x="0px" y="0px"
	 viewBox="0 0 100 100" style="enable-background:new 0 0 100 100;" xml:space="preserve">
<style type="text/css">
	.st0{fill:#FFFFFF;}
</style>
<path id="XMLID_2334_" class="st0" d="M50,1C22.9,1,1,22.9,1,50s21.9,49,49,49c27.1,0,49-21.9,49-49S77.1,1,50,1z M50,17.1
	c8,0,14.5,6.5,14.5,14.5S58,46.2,50,46.2c-8,0-14.5-6.5-14.5-14.5S42,17.1,50,17.1z M50,88.3c-13.9,0-26-7.4-32.7-18.4
	C24,58.9,36.1,51.5,50,51.5c13.9,0,26,7.4,32.7,18.4C76,80.9,63.9,88.3,50,88.3z"/>
</svg>
