<svg xmlns="http://www.w3.org/2000/svg" xmlns:xlink="http://www.w3.org/1999/xlink" version="1.1" x="0px" y="0px" viewBox="0 0 32 40" enable-background="new 0 0 32 32" xml:space="preserve"><path d="M16,8.318c-7.545,0-13.5,7.714-13.5,7.714s5.954,7.715,13.5,7.715c5.771,0,13.5-7.716,13.5-7.716  S21.771,8.318,16,8.318z M16,20.839c-2.649,0-4.807-2.156-4.807-4.809c0-2.648,2.158-4.808,4.807-4.808  c2.648,0,4.807,2.158,4.807,4.808C20.807,18.681,18.648,20.839,16,20.839z M16,13.226c-1.549,0-2.806,1.256-2.806,2.806  S14.45,18.839,16,18.839s2.807-1.258,2.807-2.809C18.807,14.483,17.55,13.226,16,13.226z"/><text x="0" y="47" fill="#000000" font-size="5px" font-weight="bold" font-family="'Helvetica Neue', Helvetica, Arial-Unicode, Arial, Sans-serif">Created by Dmitry Baranovskiy</text><text x="0" y="52" fill="#000000" font-size="5px" font-weight="bold" font-family="'Helvetica Neue', Helvetica, Arial-Unicode, Arial, Sans-serif">from the Noun Project</text></svg>