<svg id="Layer_1" data-name="Layer 1" xmlns="http://www.w3.org/2000/svg" viewBox="0 0 719.16 519.24"><defs><style>.cls-1{fill:gray;}.cls-2{fill:#ccc;}.cls-3{fill:#002960;}.cls-4{fill:#4d4d4d;}.cls-5{opacity:0.42;}.cls-6{fill:#fff;}</style></defs><title>Login image blue</title><g id="_Group_" data-name="&lt;Group&gt;"><g id="_Group_2" data-name="&lt;Group&gt;"><polygon id="_Path_" data-name="&lt;Path&gt;" class="cls-1" points="643.91 504.88 14.36 504.88 14.36 79.5 18.36 79.5 18.36 500.88 643.91 500.88 643.91 504.88"/></g><g id="_Group_3" data-name="&lt;Group&gt;"><g id="_Group_4" data-name="&lt;Group&gt;"><polygon id="_Path_2" data-name="&lt;Path&gt;" class="cls-1" points="0 92.75 2.93 95.48 16.36 81.03 29.79 95.48 32.72 92.75 16.36 75.16 0 92.75"/></g></g><g id="_Group_5" data-name="&lt;Group&gt;"><g id="_Group_6" data-name="&lt;Group&gt;"><polygon id="_Path_3" data-name="&lt;Path&gt;" class="cls-1" points="630.66 519.24 627.93 516.31 642.38 502.88 627.93 489.45 630.66 486.52 648.25 502.88 630.66 519.24"/></g></g></g><g id="_Group_7" data-name="&lt;Group&gt;"><rect id="_Rectangle_" data-name="&lt;Rectangle&gt;" class="cls-2" x="46.17" y="410.48" width="32.22" height="80.48"/></g><g id="_Group_8" data-name="&lt;Group&gt;"><rect id="_Rectangle_2" data-name="&lt;Rectangle&gt;" class="cls-1" x="87.17" y="400.49" width="32.22" height="90.47"/></g><g id="_Group_9" data-name="&lt;Group&gt;"><rect id="_Rectangle_3" data-name="&lt;Rectangle&gt;" class="cls-2" x="140.17" y="437.09" width="32.22" height="53.86"/></g><g id="_Group_10" data-name="&lt;Group&gt;"><rect id="_Rectangle_4" data-name="&lt;Rectangle&gt;" class="cls-1" x="181.17" y="371.49" width="32.22" height="119.47"/></g><g id="_Group_11" data-name="&lt;Group&gt;"><rect id="_Rectangle_5" data-name="&lt;Rectangle&gt;" class="cls-2" x="235.71" y="345.49" width="32.22" height="145.47"/></g><g id="_Group_12" data-name="&lt;Group&gt;"><rect id="_Rectangle_6" data-name="&lt;Rectangle&gt;" class="cls-1" x="276.71" y="298.45" width="32.22" height="192.51"/></g><g id="_Group_13" data-name="&lt;Group&gt;"><rect id="_Rectangle_7" data-name="&lt;Rectangle&gt;" class="cls-2" x="332.31" y="315.35" width="32.22" height="175.61"/></g><g id="_Group_14" data-name="&lt;Group&gt;"><rect id="_Rectangle_8" data-name="&lt;Rectangle&gt;" class="cls-1" x="373.31" y="345.49" width="32.22" height="145.47"/></g><g id="_Group_15" data-name="&lt;Group&gt;"><rect id="_Rectangle_9" data-name="&lt;Rectangle&gt;" class="cls-2" x="434.31" y="248.2" width="32.22" height="242.76"/></g><g id="_Group_16" data-name="&lt;Group&gt;"><rect id="_Rectangle_10" data-name="&lt;Rectangle&gt;" class="cls-1" x="475.31" y="204.43" width="32.22" height="286.53"/></g><g id="_Group_17" data-name="&lt;Group&gt;"><rect id="_Rectangle_11" data-name="&lt;Rectangle&gt;" class="cls-2" x="540.34" y="182.52" width="32.22" height="308.43"/></g><g id="_Group_18" data-name="&lt;Group&gt;"><rect id="_Rectangle_12" data-name="&lt;Rectangle&gt;" class="cls-1" x="581.34" y="145.02" width="32.22" height="345.94"/></g><g id="_Group_19" data-name="&lt;Group&gt;"><g id="_Group_20" data-name="&lt;Group&gt;"><polygon id="_Path_4" data-name="&lt;Path&gt;" class="cls-3" points="47.82 375.13 44.51 367.85 102.8 341.31 170.88 355.1 249.98 262.92 386.83 262.92 424.85 178.8 505.86 169.72 558.3 124.75 563.51 130.82 509.2 177.39 430.27 186.25 392 270.92 253.66 270.92 173.89 363.88 103.75 349.67 47.82 375.13"/></g><g id="_Group_21" data-name="&lt;Group&gt;"><g id="_Group_22" data-name="&lt;Group&gt;"><polygon id="_Path_5" data-name="&lt;Path&gt;" class="cls-3" points="563.48 150.99 605.56 89.49 538.36 121.7 563.48 150.99"/></g></g></g><g id="_Group_23" data-name="&lt;Group&gt;"><path id="_Compound_Path_" data-name="&lt;Compound Path&gt;" class="cls-4" d="M874.13,949.95c-87.24,0-158.22-71-158.22-158.22s71-158.22,158.22-158.22,158.22,71,158.22,158.22S961.37,949.95,874.13,949.95Zm0-308.43c-82.83,0-150.22,67.39-150.22,150.22S791.3,941.95,874.13,941.95s150.22-67.39,150.22-150.22S957,641.51,874.13,641.51Z" transform="translate(-371.49 -633.51)"/></g><g id="_Group_24" data-name="&lt;Group&gt;"><rect id="_Path_6" data-name="&lt;Path&gt;" class="cls-4" x="1008.23" y="904.2" width="8" height="237.06" transform="translate(-752.87 30.81) rotate(-30.87)"/></g><g id="_Group_25" data-name="&lt;Group&gt;"><rect id="_Path_7" data-name="&lt;Path&gt;" class="cls-4" x="1004.44" y="950.21" width="41" height="187.55" transform="translate(-761.97 40.34) rotate(-30.87)"/></g><g id="_Group_26" data-name="&lt;Group&gt;" class="cls-5"><circle id="_Path_8" data-name="&lt;Path&gt;" class="cls-6" cx="502.63" cy="158.22" r="154.22"/><path id="_Compound_Path_2" data-name="&lt;Compound Path&gt;" class="cls-4" d="M874.13,949.95c-87.24,0-158.22-71-158.22-158.22s71-158.22,158.22-158.22,158.22,71,158.22,158.22S961.37,949.95,874.13,949.95Zm0-308.43c-82.83,0-150.22,67.39-150.22,150.22S791.3,941.95,874.13,941.95s150.22-67.39,150.22-150.22S957,641.51,874.13,641.51Z" transform="translate(-371.49 -633.51)"/></g></svg>