<?xml version="1.0" encoding="utf-8"?>
<!-- Generator: Adobe Illustrator 19.0.0, SVG Export Plug-In . SVG Version: 6.00 Build 0)  -->
<svg version="1.1" id="Layer_1" xmlns="http://www.w3.org/2000/svg" xmlns:xlink="http://www.w3.org/1999/xlink" x="0px" y="0px"
	 viewBox="0 0 33.7 33.7" style="enable-background:new 0 0 33.7 33.7;" xml:space="preserve">
<style type="text/css">
	.st0{opacity:0.8;fill:#666666;}
</style>
<path id="XMLID_837_" class="st0" d="M23.7,0H10C4.5,0,0,4.5,0,10v13.7c0,5.5,4.5,10,10,10h13.7c5.5,0,10-4.5,10-10V10
	C33.7,4.5,29.2,0,23.7,0z M5.6,27.7l1.1-7.5l6.4,6.4L5.6,27.7z M13.9,25.8l-1.7-1.7l-0.6-0.6l-1.7-1.7l-0.6-0.6l-1.7-1.7l1.3-1.3
	L19.3,7.6L21,9.3L10.5,19.8l0.6,0.6L21.7,9.9l1.7,1.7L12.9,22.1l0.6,0.6L24,12.3l1.7,1.7L13.9,25.8z M26.6,13.1l-6.4-6.4l1.3-1.3
	c0,0,3.3,1.5,4.1,2.3c0.8,0.8,2.3,4.1,2.3,4.1L26.6,13.1z"/>
</svg>
