<?xml version="1.0" encoding="utf-8"?>
<!-- Generator: Adobe Illustrator 19.0.0, SVG Export Plug-In . SVG Version: 6.00 Build 0)  -->
<svg version="1.1" id="Layer_1" xmlns="http://www.w3.org/2000/svg" xmlns:xlink="http://www.w3.org/1999/xlink" x="0px" y="0px"
	 viewBox="0 0 100 100" style="enable-background:new 0 0 100 100;" xml:space="preserve">
<g id="XMLID_1_">
	<polygon id="XMLID_5_" points="13.9,86.1 38.3,82.6 17.4,61.7 	"/>
	<polygon id="XMLID_4_" points="39.6,70.1 37.5,68 71.5,34.1 65.9,28.5 32,62.5 29.9,60.4 63.8,26.4 58.3,20.9 24.4,54.8 20.2,59 
		25.7,64.6 27.8,66.6 33.4,72.2 35.4,74.3 41,79.8 79.1,41.7 73.6,36.2 	"/>
	<path id="XMLID_3_" d="M78.6,21.4c-2.6-2.6-13.3-7.5-13.3-7.5l-4.2,4.2l20.8,20.8l4.2-4.2C86.1,34.7,81.1,24,78.6,21.4z"/>
</g>
</svg>
