<?xml version="1.0" encoding="utf-8"?>
<!-- Generator: Adobe Illustrator 19.0.0, SVG Export Plug-In . SVG Version: 6.00 Build 0)  -->
<svg version="1.1" id="Layer_1" xmlns="http://www.w3.org/2000/svg" xmlns:xlink="http://www.w3.org/1999/xlink" x="0px" y="0px"
	 viewBox="0 0 100 100" style="enable-background:new 0 0 100 100;" xml:space="preserve">
<style type="text/css">
	.st0{fill:#1A1A1A;}
</style>
<path id="XMLID_1033_" class="st0" d="M83.6,0H16.4c-7.2,0-13,5.8-13,13v74c0,7.2,5.8,13,13,13h67.1c7.2,0,13-5.8,13-13V13
	C96.5,5.8,90.7,0,83.6,0z M83.1,22L83.1,22L83.1,22L83.1,22z M74.2,15.5c3.8,1,7.1,3.4,9.1,6.8c1.3,2.1,1.9,4.2,2,6.6L71,29
	l-7.2-12.3C67,15.1,70.7,14.7,74.2,15.5z M85.3,31.6c-0.8,7.3-7,13.1-14.6,13.2c-2.3,0-4.3-0.4-6.4-1.4L71,31.7L85.3,31.6z
	 M55.7,30.1c0-2.6,0.6-5.2,1.9-7.4c1.1-1.9,2.3-3.3,4-4.6l7.2,12.2l-6.7,11.7C58.2,39.4,55.7,34.9,55.7,30.1L55.7,30.1z M37.4,15.2
	c0-0.3,0.2-0.6,0.6-0.6h6.3c0.3,0,0.6,0.2,0.6,0.6v29.1c0,0.3-0.2,0.6-0.6,0.6H38c-0.3,0-0.6-0.2-0.6-0.6V15.2z M27,25.3
	c0-0.3,0.2-0.6,0.6-0.6h6.3c0.3,0,0.6,0.2,0.6,0.6v19.1c0,0.3-0.2,0.6-0.6,0.6h-6.3c-0.3,0-0.6-0.2-0.6-0.6V25.3z M16.6,33.8
	c0-0.3,0.2-0.6,0.6-0.6h6.3c0.3,0,0.6,0.2,0.6,0.6v10.5c0,0.3-0.2,0.6-0.6,0.6h-6.3c-0.3,0-0.6-0.2-0.6-0.6V33.8z M54.1,79.7
	c0,0.7-0.5,1.2-1.2,1.2H17.8c-0.7,0-1.2-0.5-1.2-1.2v-1.5c0-0.7,0.5-1.2,1.2-1.2h35.1c0.7,0,1.2,0.5,1.2,1.2V79.7z M85.4,73.2
	c0,0.7-0.5,1.2-1.2,1.2H17.8c-0.7,0-1.2-0.5-1.2-1.2v-1.5c0-0.7,0.5-1.2,1.2-1.2h66.4c0.7,0,1.2,0.5,1.2,1.2V73.2z M85.4,66.7
	c0,0.7-0.5,1.2-1.2,1.2H17.8c-0.7,0-1.2-0.5-1.2-1.2v-1.5c0-0.7,0.5-1.2,1.2-1.2h66.4c0.7,0,1.2,0.5,1.2,1.2V66.7z M85.4,60.2
	c0,0.7-0.5,1.2-1.2,1.2H17.8c-0.7,0-1.2-0.5-1.2-1.2v-1.5c0-0.7,0.5-1.2,1.2-1.2h66.4c0.7,0,1.2,0.5,1.2,1.2V60.2z"/>
</svg>
