<?xml version="1.0" encoding="utf-8"?>
<!-- Generator: Adobe Illustrator 19.0.0, SVG Export Plug-In . SVG Version: 6.00 Build 0)  -->
<svg version="1.1" id="Layer_1" xmlns="http://www.w3.org/2000/svg" xmlns:xlink="http://www.w3.org/1999/xlink" x="0px" y="0px"
	 viewBox="0 0 100 100" style="enable-background:new 0 0 100 100;" xml:space="preserve">
<style type="text/css">
	.st0{fill:#FFFFFF;}
</style>
<path id="XMLID_1084_" class="st0" d="M83.9,0H16.1C9,0,3.2,5.8,3.2,13v74c0,7.2,5.8,13,13,13h67.7c7.2,0,13-5.8,13-13V13
	C96.8,5.8,91,0,83.9,0z M18,47.9c0,0,0-0.1,0-0.1v0c0-0.1,0-0.1,0-0.2V16.6c0-1.7,1.3-3,3-3c1.7,0,3,1.3,3,3v24l12.9-12.5l11,7.1
	l13.1-18.7h16.7c1.7,0,3,1.3,3,3s-1.3,3-3,3H64.2L49.5,43.3l-11.9-7.6l-10.1,9.8h52.1c1.7,0,3,1.3,3,3s-1.3,3-2.9,3H20.9
	c-1.7,0-3-1.3-3-3c0-0.1,0.1-0.3,0.1-0.4C18,48.1,18,48,18,47.9z M88,88.3H13.7v-2.6H88V88.3z M88,77H13.7v-2.6H88V77z M88,65.8
	H13.7v-2.6H88V65.8z"/>
</svg>
