<?xml version="1.0" encoding="utf-8"?>
<!-- Generator: Adobe Illustrator 19.0.0, SVG Export Plug-In . SVG Version: 6.00 Build 0)  -->
<svg version="1.1" id="Layer_1" xmlns="http://www.w3.org/2000/svg" xmlns:xlink="http://www.w3.org/1999/xlink" x="0px" y="0px"
	 viewBox="0 0 100 100" style="enable-background:new 0 0 100 100;" xml:space="preserve">
<style type="text/css">
	.st1{fill:#FFFFFF}
</style>
<g id="XMLID_2322_" class="st0">
	<g id="XMLID_2330_">
		<polygon id="XMLID_8_" class="st1" points="50,0 61.6,11.3 50,22.5 		"/>
	</g>
	<g id="XMLID_2329_">
		<path id="XMLID_7_" class="st2" d="M50,89.7"/>
	</g>
	<g id="XMLID_2328_">
		<path id="XMLID_6_" class="st2" d="M89.7,50"/>
	</g>
	<g id="XMLID_2327_">
		<path id="XMLID_3_" class="st1" d="M29.8,87.6C15.9,80.1,7.3,65.7,7.3,50C7.3,26.5,26.5,7.3,50,7.3v6c-20.2,0-36.6,16.4-36.6,36.6
			c0,13.5,7.4,25.9,19.3,32.3L29.8,87.6z"/>
	</g>
	<g id="XMLID_2326_">
		<path id="XMLID_5_" class="st2" d="M10.3,50"/>
	</g>
	<g id="XMLID_2325_">
		<path id="XMLID_2_" class="st1" d="M50,92.7v-6c20.2,0,36.6-16.4,36.6-36.6c0-13.5-7.4-25.9-19.3-32.3l2.9-5.3
			C84.1,19.9,92.7,34.3,92.7,50C92.7,73.5,73.5,92.7,50,92.7z"/>
	</g>
	<g id="XMLID_2324_">
		<path id="XMLID_4_" class="st2" d="M50,10.3"/>
	</g>
	<g id="XMLID_2323_">
		<polygon id="XMLID_1_" class="st1" points="50,77.5 38.4,88.7 50,100 		"/>
	</g>
</g>
</svg>
