<?xml version="1.0" encoding="utf-8"?>
<!-- Generator: Adobe Illustrator 19.0.0, SVG Export Plug-In . SVG Version: 6.00 Build 0)  -->
<svg version="1.1" id="Layer_1" xmlns="http://www.w3.org/2000/svg" xmlns:xlink="http://www.w3.org/1999/xlink" x="0px" y="0px"
	 viewBox="0 0 100 100" style="enable-background:new 0 0 100 100;" xml:space="preserve">
<style type="text/css">
	.st0{fill:#0B4623;stroke:#0B4623;stroke-miterlimit:10;}
</style>
<g id="XMLID_1857_">
	<path id="XMLID_1859_" class="st0" d="M67.9,46.6c-4.4,5.7-11.2,9.4-18.9,9.4c-7.8,0-14.7-3.8-19-9.6c-5.9,7.9-9.6,18.2-9.6,25.7
		C20.4,80.3,33,87,48.7,87C64.3,87,77,80.3,77,72.1C77,63.9,73.5,54.1,67.9,46.6z"/>
	<path id="XMLID_1858_" class="st0" d="M69,32c0,11-8.9,20-20,20c-11,0-20-8.9-20-20c0-11,8.9-20,20-20C60.1,12,69,20.9,69,32z"/>
</g>
</svg>
